<svg width="431" height="433" viewBox="0 0 431 433" fill="none" xmlns="http://www.w3.org/2000/svg">
<g filter="url(#filter0_d_91_344)">
<rect x="15" y="13" width="388.194" height="391" rx="194.097" fill="#696348"/>
<path d="M27 197C27 103.112 103.112 27 197 27H221C314.888 27 391 103.112 391 197V221C391 314.888 314.888 391 221 391H197C103.112 391 27 314.888 27 221V197Z" fill="#8D8561"/>
<g filter="url(#filter1_d_91_344)">
<path d="M258.951 247.616C257.645 239.547 260.88 231.465 267.392 226.525L277.227 219.065C282.134 215.342 285.461 209.958 286.596 203.904L287.092 201.262C287.676 198.144 286.85 194.957 284.824 192.517C282.798 190.077 279.819 188.678 276.648 188.678C271.986 188.678 265.971 185.331 263.514 181.37L249.292 158.444C241.611 146.062 229.91 136.315 216.315 130.985C215.622 130.713 214.895 130.576 214.153 130.576C212.07 130.576 210.115 131.688 209.049 133.477L207.39 136.261C206.075 138.469 203.661 139.84 201.089 139.841C200.083 139.841 199.101 139.636 198.171 139.232L193.121 137.036C191.157 136.182 189.669 134.519 189.039 132.472C188.409 130.425 188.703 128.212 189.847 126.401C190.316 125.659 190.372 124.741 190 123.945C189.627 123.152 188.888 122.61 188.019 122.496C185.111 122.116 182.187 121.953 179.297 122.012L162.128 122.363C148.429 122.642 136.06 129.834 129.042 141.601L113.171 168.208C108.717 175.674 108.973 185.159 113.823 192.374L121.631 203.992C124.656 208.493 129.699 211.18 135.119 211.18C135.811 211.18 136.511 211.135 137.198 211.047L162.256 207.821C165.647 207.384 169.052 208.655 171.333 211.19C172.548 212.539 173.367 214.125 173.751 215.83C174.165 217.663 173.087 219.531 173.247 221.404V221.404C173.351 222.62 174.011 223.741 175.055 224.478L180.029 227.989C185.816 232.074 188.247 239.604 185.942 246.302L184.296 251.081C181.426 259.419 181.571 268.55 184.703 276.793L195.976 306.459C197.885 311.484 202.588 314.88 207.957 315.114L218.141 315.556C218.336 315.565 218.531 315.569 218.725 315.569C222.083 315.569 225.299 314.323 227.781 312.06L236.222 304.363C239.589 301.293 241.687 297.105 242.13 292.569L242.691 286.822C243.128 282.343 245.56 278.397 249.364 275.994L251.96 274.355C258.196 270.416 261.465 263.166 260.287 255.885L258.951 247.616Z" fill="#696348"/>
</g>
<mask id="mask0_91_344" style="mask-type:alpha" maskUnits="userSpaceOnUse" x="27" y="27" width="364" height="364">
<path d="M27 197C27 103.112 103.112 27 197 27H221C314.888 27 391 103.112 391 197V221C391 314.888 314.888 391 221 391H197C103.112 391 27 314.888 27 221V197Z" fill="#8D8561"/>
</mask>
<g mask="url(#mask0_91_344)">
</g>
<mask id="mask1_91_344" style="mask-type:alpha" maskUnits="userSpaceOnUse" x="27" y="27" width="364" height="364">
<path d="M27 197C27 103.112 103.112 27 197 27H221C314.888 27 391 103.112 391 197V221C391 314.888 314.888 391 221 391H197C103.112 391 27 314.888 27 221V197Z" fill="#8D8561"/>
</mask>
<g mask="url(#mask1_91_344)">
<path d="M228.235 79.9346C228.235 79.9343 228.235 79.9339 228.235 79.9339C233.83 79.9119 239.45 80.0324 245.012 80.2809C249.596 80.4856 252.301 74.1118 247.896 73.3379V73.3379L235.901 71.2303L233.899 70.8786C232.925 70.7074 179.168 62.1317 122.648 100.767C119.939 102.619 116.898 105.143 113.937 104.623V104.623C112.939 104.448 111.935 104.271 111.27 103.243C110.094 101.426 109.955 99.0844 111.76 97.6221C112.277 97.2031 112.879 96.8787 113.422 96.4891C116.259 94.4532 119.086 92.5331 121.897 90.7224C130.58 85.1297 130.042 65.7463 120.357 65.3064V65.3064C115.595 65.0901 110.495 68.5109 109.058 72.8788C106.98 79.1974 103.438 87.6523 97.2742 98.044C85.7018 116.415 85.9876 139.992 86.2431 148.083C86.3029 149.978 86.7094 152.078 85.4057 153.788C84.8676 154.494 84.0776 155.081 83.0181 155.593C81.7103 156.226 80.2677 156.278 78.9581 156.048V156.048V156.048C75.0076 155.354 74.5144 150.808 74.3252 147.093C73.7906 136.599 74.7308 113.182 86.9329 94.4049C91.755 86.2757 94.8851 79.5602 96.8752 74.3541C99.2116 68.2421 95.0398 63.8487 88.5871 62.715V62.715V62.715C81.2203 61.4206 72.8151 67.5115 71.346 74.5993C67.9093 91.1791 63.3671 116.71 63.6206 140.556C63.6312 175.188 55.2358 238.109 53.358 252.698C53.1328 254.448 54.5878 255.892 56.487 255.954V255.954C59.1679 256.042 61.7126 253.884 62.196 251.412C65.9711 232.102 78.2969 182.888 101.951 154.601C130.268 120.285 179.914 80.5841 228.234 79.9353C228.234 79.9353 228.235 79.935 228.235 79.9346V79.9346Z" fill="#696348"/>
<path d="M176.199 337.374C176.199 337.374 176.199 337.375 176.199 337.375C169.984 337.349 163.738 337.172 157.552 336.859C152.708 336.613 149.915 343.385 154.582 344.202V344.202L167.956 346.544L170.187 346.935C171.273 347.125 231.111 356.686 292.622 316.261C295.642 314.276 299.008 311.604 302.276 312.177V312.177C303.388 312.371 304.508 312.567 305.277 313.664C306.642 315.612 306.863 318.112 304.875 319.646C304.325 320.071 303.692 320.398 303.118 320.795C300.46 322.634 297.808 324.383 295.166 326.045C285.787 331.944 286.204 353.323 296.596 353.857V353.857C301.727 354.121 307.211 350.398 308.723 345.665C310.85 339.004 314.515 330.146 320.962 319.304C333.143 300.076 332.238 275.316 331.707 266.524C331.577 264.368 330.996 261.903 332.622 260.043C333.185 259.399 333.975 258.854 335.006 258.375C336.471 257.693 338.074 257.654 339.537 257.91V257.91V257.91C343.876 258.67 344.639 263.562 344.962 267.636C345.853 278.864 345.449 303.545 332.546 323.257C327.632 331.521 324.417 338.409 322.354 343.825C319.748 350.667 324.456 355.61 331.666 356.873V356.873V356.873C339.851 358.306 349.107 351.523 350.586 343.625C353.877 326.045 358.007 299.418 357.022 274.485C355.968 237.813 363.351 171.326 365.017 155.669C365.222 153.743 363.602 152.17 361.521 152.086V152.086C358.526 151.965 355.694 154.416 355.2 157.195C351.519 177.886 339.321 229.596 314.068 259.244C283.684 295.412 229.795 337.109 176.2 337.373C176.199 337.373 176.199 337.374 176.199 337.374V337.374Z" fill="#696348"/>
</g>
</g>
<defs>
<filter id="filter0_d_91_344" x="0" y="0" width="430.194" height="433" filterUnits="userSpaceOnUse" color-interpolation-filters="sRGB">
<feFlood flood-opacity="0" result="BackgroundImageFix"/>
<feColorMatrix in="SourceAlpha" type="matrix" values="0 0 0 0 0 0 0 0 0 0 0 0 0 0 0 0 0 0 127 0" result="hardAlpha"/>
<feOffset dx="6" dy="8"/>
<feGaussianBlur stdDeviation="10.5"/>
<feComposite in2="hardAlpha" operator="out"/>
<feColorMatrix type="matrix" values="0 0 0 0 0 0 0 0 0 0 0 0 0 0 0 0 0 0 0.32 0"/>
<feBlend mode="normal" in2="BackgroundImageFix" result="effect1_dropShadow_91_344"/>
<feBlend mode="normal" in="SourceGraphic" in2="effect1_dropShadow_91_344" result="shape"/>
</filter>
<filter id="filter1_d_91_344" x="106" y="122" width="187.275" height="203.569" filterUnits="userSpaceOnUse" color-interpolation-filters="sRGB">
<feFlood flood-opacity="0" result="BackgroundImageFix"/>
<feColorMatrix in="SourceAlpha" type="matrix" values="0 0 0 0 0 0 0 0 0 0 0 0 0 0 0 0 0 0 127 0" result="hardAlpha"/>
<feOffset dx="1" dy="5"/>
<feGaussianBlur stdDeviation="2.5"/>
<feComposite in2="hardAlpha" operator="out"/>
<feColorMatrix type="matrix" values="0 0 0 0 0 0 0 0 0 0 0 0 0 0 0 0 0 0 0.58 0"/>
<feBlend mode="normal" in2="BackgroundImageFix" result="effect1_dropShadow_91_344"/>
<feBlend mode="normal" in="SourceGraphic" in2="effect1_dropShadow_91_344" result="shape"/>
</filter>
</defs>
</svg>
