<svg width="479" height="154" viewBox="0 0 479 154" fill="none" xmlns="http://www.w3.org/2000/svg">
<mask id="path-1-inside-1_4_2448" fill="white">
<path d="M13.6784 74.9389C13.6784 51.7835 22.0327 31.0882 35.1481 17.3837C37.8783 14.0053 41.334 11.2319 45.0849 8.9738C52.174 4.20571 60.122 1.20122 68.5606 0.424905C70.4524 -0.0403469 71.9664 -0.148015 72.9347 0.224437C78.9189 0.224437 83.8062 -0.30991 89.2517 1.77024C92.1892 2.66274 104.023 6.06418 108.317 20.4918C104.994 9.32757 91.5963 2.66586 89.2517 1.77024C83.55 0.0378781 77.0912 0.625508 72.9347 0.224437C71.0468 0.362312 68.6155 0.682842 65.8672 1.2332C56.8942 4.3266 42.8168 12.5154 35.1481 17.3837C27.1344 34.2787 11.9826 73.1183 15.4844 93.317C19.4892 103.351 27.289 121.603 32.1513 129.142C33.1198 130.301 34.1193 131.419 35.1481 132.494C43.5823 137.891 59.9852 147.426 68.6611 149.462C70.0725 149.589 71.4977 149.653 72.9347 149.653C71.9399 149.985 70.4681 149.886 68.6611 149.462C55.9669 148.321 44.3784 142.139 35.1481 132.494C34.4045 132.249 33.3702 131.032 32.1513 129.142C24.1547 119.574 18.2736 107.222 15.4844 93.317C14.305 87.4375 13.6784 81.2805 13.6784 74.9389Z"/>
</mask>
<path d="M13.6784 74.9389C13.6784 51.7835 22.0327 31.0882 35.1481 17.3837C37.8783 14.0053 41.334 11.2319 45.0849 8.9738C52.174 4.20571 60.122 1.20122 68.5606 0.424905C70.4524 -0.0403469 71.9664 -0.148015 72.9347 0.224437C78.9189 0.224437 83.8062 -0.30991 89.2517 1.77024C92.1892 2.66274 104.023 6.06418 108.317 20.4918C104.994 9.32757 91.5963 2.66586 89.2517 1.77024C83.55 0.0378781 77.0912 0.625508 72.9347 0.224437C71.0468 0.362312 68.6155 0.682842 65.8672 1.2332C56.8942 4.3266 42.8168 12.5154 35.1481 17.3837C27.1344 34.2787 11.9826 73.1183 15.4844 93.317C19.4892 103.351 27.289 121.603 32.1513 129.142C33.1198 130.301 34.1193 131.419 35.1481 132.494C43.5823 137.891 59.9852 147.426 68.6611 149.462C70.0725 149.589 71.4977 149.653 72.9347 149.653C71.9399 149.985 70.4681 149.886 68.6611 149.462C55.9669 148.321 44.3784 142.139 35.1481 132.494C34.4045 132.249 33.3702 131.032 32.1513 129.142C24.1547 119.574 18.2736 107.222 15.4844 93.317C14.305 87.4375 13.6784 81.2805 13.6784 74.9389Z" fill="white"/>
<path d="M45.0849 8.9738L41.4746 2.97666L41.324 3.0673L41.1782 3.1654L45.0849 8.9738ZM68.5606 0.424905L67.9194 -6.54566L67.3977 -6.49767L66.8889 -6.37255L68.5606 0.424905ZM65.8672 1.2332L67.2416 8.09693L67.7034 8.00446L68.1486 7.85097L65.8672 1.2332ZM40.2053 22.2236C42.9441 19.3618 45.8892 16.8689 48.9916 14.7822L41.1782 3.1654C37.1966 5.84342 33.4865 8.99575 30.0908 12.5439L40.2053 22.2236ZM69.2019 7.39547C70.4335 7.28217 71.6782 7.22444 72.9347 7.22444V-6.77556C71.2489 -6.77556 69.5763 -6.69809 67.9194 -6.54566L69.2019 7.39547ZM64.4927 -5.63054C57.8085 -4.29201 49.1906 -1.6684 41.4746 2.97666L48.6952 14.9709C54.6048 11.4134 61.5605 9.23458 67.2416 8.09693L64.4927 -5.63054ZM68.1486 7.85097C68.9608 7.57098 69.6552 7.36429 70.2323 7.22236L66.8889 -6.37255C65.8064 -6.10632 64.6958 -5.76726 63.5857 -5.38458L68.1486 7.85097ZM45.0849 8.9738L52.3055 20.9681L52.6066 20.7868L52.8983 20.5906L45.0849 8.9738ZM68.5606 0.424905L69.8432 14.366L70.8865 14.27L71.904 14.0198L68.5606 0.424905ZM65.8672 1.2332L63.1182 -12.4943L62.1947 -12.3093L61.3042 -12.0024L65.8672 1.2332ZM15.4844 93.317L1.75786 96.0705L15.4844 93.317ZM72.9347 149.653L77.3619 162.935L72.9347 135.653V149.653ZM27.6784 74.9389C27.6784 55.0287 34.8799 37.9125 45.2626 27.0635L25.0336 7.70402C9.18541 24.264 -0.321594 48.5382 -0.321594 74.9389H27.6784ZM52.8983 20.5906C58.2095 17.0184 63.9375 14.9093 69.8432 14.366L67.2781 -13.5162C56.3065 -12.5069 46.1385 -8.60695 37.2715 -2.64301L52.8983 20.5906ZM71.915 -13.7384C69.3782 -13.5531 66.3663 -13.1447 63.1182 -12.4943L68.6161 14.9607C70.8647 14.5104 72.7155 14.2777 73.9544 14.1873L71.915 -13.7384ZM37.8643 -3.02049C33.0704 -0.134575 28.2491 3.64695 24.2592 8.58421L46.037 26.1833C47.5074 24.3637 49.5975 22.5983 52.3055 20.9681L37.8643 -3.02049ZM29.211 90.5635C28.214 85.5935 27.6784 80.3589 27.6784 74.9389H-0.321594C-0.321594 82.2021 0.396019 89.2816 1.75786 96.0705L29.211 90.5635ZM22.4989 11.3839C18.2478 20.3464 12.1865 34.9301 7.60078 50.0475C3.23656 64.4346 -0.679636 82.0392 1.69018 95.7085L29.2786 90.9255C28.1467 84.3961 30.0555 72.4815 34.3951 58.1754C38.5133 44.5996 44.0348 31.316 47.7973 23.3835L22.4989 11.3839ZM72.9347 135.653C71.9169 135.653 70.9099 135.608 69.914 135.518L67.4081 163.406C69.2352 163.57 71.0784 163.653 72.9347 163.653V135.653ZM69.9141 135.518C61.0856 134.725 52.5188 130.397 45.2626 122.814L25.0336 142.174C36.238 153.882 50.8481 161.918 67.4081 163.406L69.9141 135.518ZM45.2626 122.814C44.4545 121.97 43.6642 121.086 42.8938 120.165L21.4088 138.12C22.5753 139.516 23.7841 140.868 25.0336 142.174L45.2626 122.814ZM42.8938 120.165C36.5087 112.524 31.5765 102.356 29.211 90.5635L1.75786 96.0705C4.97077 112.087 11.8006 126.623 21.4088 138.12L42.8938 120.165ZM2.48183 98.5067C6.36885 108.246 14.6514 127.838 20.3859 136.73L43.9167 121.554C39.9266 115.368 32.6096 98.4563 28.487 88.1273L2.48183 98.5067ZM20.3859 136.73C21.1776 137.958 22.1712 139.384 23.3301 140.698C24.0337 141.495 26.5835 144.411 30.7633 145.79L39.5328 119.199C41.5444 119.862 42.8359 120.839 43.3319 121.24C43.9112 121.707 44.2447 122.081 44.3257 122.172C44.4769 122.344 44.3439 122.217 43.9167 121.554L20.3859 136.73ZM27.6021 144.286C32.0766 147.15 38.6158 151.082 45.2487 154.604C51.4857 157.915 59.1782 161.617 65.4622 163.092L71.8599 135.832C69.468 135.271 64.6211 133.187 58.3792 129.873C52.5332 126.769 46.6538 123.236 42.6941 120.702L27.6021 144.286ZM65.4621 163.092C67.6753 163.611 72.4404 164.576 77.3619 162.935L68.5075 136.372C69.4226 136.067 70.1878 135.945 70.7025 135.893C71.2223 135.841 71.6053 135.849 71.8086 135.859C72.181 135.878 72.2322 135.92 71.86 135.832L65.4621 163.092ZM42.6514 29.2032C50.3357 24.325 63.1767 16.9693 70.4301 14.4687L61.3042 -12.0024C50.6118 -8.31615 35.2979 0.705844 27.6447 5.56427L42.6514 29.2032ZM71.904 14.0198C72.3213 13.9172 72.2533 13.969 71.8256 13.9914C71.5919 14.0036 71.1392 14.0132 70.5258 13.9434C69.9195 13.8744 68.9979 13.7101 67.909 13.2913L77.9604 -12.8424C72.6073 -14.9013 67.2996 -13.6821 65.2173 -13.17L71.904 14.0198ZM71.5901 14.1597C73.199 14.315 74.8464 14.3597 76.1254 14.3881C77.564 14.42 78.6866 14.4336 79.9253 14.4857C82.3872 14.5893 84.0304 14.8158 85.1817 15.1656L93.3217 -11.6251C88.7713 -13.0077 84.3342 -13.3536 81.1022 -13.4895C76.8736 -13.6674 75.9899 -13.5458 74.2794 -13.7108L71.5901 14.1597ZM85.1817 15.1656C86.4574 15.5532 88.2524 16.0974 90.1254 17.4385C91.8047 18.6408 93.7521 20.6337 94.8985 24.4854L121.735 16.4983C115.253 -5.28282 96.8636 -10.5489 93.3217 -11.6251L85.1817 15.1656ZM72.9347 14.2244C80.695 14.2244 81.9166 13.9549 84.2558 14.8485L94.2476 -11.308C85.6959 -14.5747 77.1428 -13.7756 72.9347 -13.7756V14.2244ZM84.2558 14.8485C84.1258 14.7988 86.8382 15.998 89.7939 18.3091C92.8472 20.6965 94.4342 22.9255 94.8984 24.4854L121.735 16.4983C118.877 6.89388 112.103 0.209912 107.041 -3.74848C101.881 -7.78324 96.7222 -10.3627 94.2476 -11.308L84.2558 14.8485Z" fill="white" mask="url(#path-1-inside-1_4_2448)"/>
<path d="M104.732 105.796C103.814 100.122 106.088 94.4393 110.667 90.9657L117.582 85.7202C121.032 83.1026 123.372 79.3168 124.17 75.0599L124.519 73.2022C124.929 71.0102 124.348 68.7695 122.924 67.0536C121.5 65.3378 119.405 64.3539 117.175 64.3539C113.897 64.3539 109.668 62.0009 107.941 59.2156L97.9405 43.0958C92.5395 34.3898 84.3126 27.536 74.7536 23.7882C74.2662 23.5976 73.7547 23.5011 73.2332 23.5011C71.7688 23.5011 70.3937 24.2826 69.6442 25.5409L68.478 27.4985C67.5532 29.0509 65.8556 30.0151 64.0476 30.0155C63.34 30.0155 62.6499 29.8712 61.9958 29.5871L58.4449 28.0434C57.064 27.4429 56.018 26.2732 55.5748 24.8339C55.1317 23.3946 55.3385 21.8388 56.1427 20.5654C56.4724 20.0436 56.5123 19.3981 56.2502 18.8385C55.9884 18.2807 55.4684 17.8997 54.8576 17.8197C52.813 17.5524 50.7567 17.4377 48.7252 17.4792L36.653 17.7259C27.0205 17.922 18.3237 22.9793 13.3888 31.2532L2.22937 49.9613C-0.901765 55.2106 -0.721764 61.8803 2.68797 66.9533L8.17837 75.1221C10.3054 78.2869 13.8508 80.1762 17.6621 80.1762C18.1485 80.1762 18.6405 80.1446 19.1238 80.0828L36.7427 77.8146C39.127 77.5068 41.5213 78.4009 43.1252 80.1831C44.4415 81.6451 45.097 83.5039 44.9925 85.4537C44.6006 86.0194 44.4134 86.6917 44.4711 87.3646C44.5442 88.22 45.008 89.008 45.7421 89.526L49.2397 91.9952C53.3087 94.8673 55.018 100.162 53.397 104.871L52.24 108.232C50.2219 114.094 50.3235 120.515 52.5258 126.311L60.4521 147.17C61.7945 150.703 65.1012 153.091 68.8764 153.255L76.037 153.566C76.1744 153.572 76.3115 153.575 76.4482 153.575C78.8092 153.575 81.0702 152.699 82.8156 151.108L88.7505 145.696C91.118 143.538 92.5934 140.593 92.905 137.403L93.299 133.362C93.6061 130.213 95.3164 127.438 97.991 125.749L99.8161 124.597C104.201 121.827 106.5 116.729 105.671 111.609L104.732 105.796Z" fill="white"/>
<path d="M135.879 34.2461C135.879 34.3398 135.844 34.4219 135.773 34.4922C135.281 35.0312 134.719 35.5 134.086 35.8984C133.453 36.2734 132.773 36.5898 132.047 36.8477C131.32 37.082 130.582 37.2695 129.832 37.4102C129.082 37.5273 128.355 37.5977 127.652 37.6211C127.254 39.918 126.844 42.2383 126.422 44.582C126 46.9258 125.789 49.2695 125.789 51.6133C125.789 52.293 125.824 52.9609 125.895 53.6172C125.988 54.2969 126.164 54.8945 126.422 55.4102C126.703 55.9492 127.09 56.3711 127.582 56.6758C128.098 57.0039 128.777 57.168 129.621 57.168C129.762 57.168 129.891 57.1562 130.008 57.1328C130.148 57.1094 130.289 57.0977 130.43 57.0977C130.594 57.0977 130.723 57.1562 130.816 57.2734C130.91 57.3906 130.957 57.5312 130.957 57.6953C130.957 57.8594 130.863 57.9883 130.676 58.082C130.512 58.1992 130.312 58.2812 130.078 58.3281C129.867 58.375 129.645 58.4102 129.41 58.4336C129.176 58.457 129 58.4688 128.883 58.4688C127.875 58.4688 127.043 58.2578 126.387 57.8359C125.754 57.4375 125.25 56.8984 124.875 56.2188C124.5 55.5625 124.23 54.8125 124.066 53.9688C123.926 53.1484 123.855 52.3281 123.855 51.5078C123.855 50.3828 123.914 49.2344 124.031 48.0625C124.172 46.8906 124.336 45.7188 124.523 44.5469C124.734 43.3516 124.957 42.168 125.191 40.9961C125.426 39.8242 125.648 38.6875 125.859 37.5859C125.367 37.5625 124.875 37.5391 124.383 37.5156C123.891 37.4922 123.398 37.4805 122.906 37.4805C122.648 37.4805 122.402 37.4805 122.168 37.4805C121.934 37.4805 121.688 37.4922 121.43 37.5156C121.031 38.1484 120.609 38.7695 120.164 39.3789C119.742 39.9883 119.309 40.5977 118.863 41.207C118.043 42.332 117.164 43.457 116.227 44.582C115.289 45.6836 114.281 46.7148 113.203 47.6758C112.148 48.6367 111.012 49.4922 109.793 50.2422C108.574 50.9922 107.262 51.5547 105.855 51.9297C105.457 52.0469 105.035 52.1406 104.59 52.2109C104.121 52.3047 103.676 52.3516 103.254 52.3516C103.113 52.3516 103.008 52.293 102.938 52.1758C102.844 52.0586 102.797 51.9414 102.797 51.8242C102.797 51.543 102.914 51.3789 103.148 51.332C103.664 51.2148 104.156 51.1094 104.625 51.0156C105.094 50.8984 105.574 50.7461 106.066 50.5586C107.285 50.0898 108.422 49.4805 109.477 48.7305C110.531 47.957 111.516 47.1133 112.43 46.1992C113.367 45.2617 114.246 44.2773 115.066 43.2461C115.887 42.2148 116.672 41.1836 117.422 40.1523C117.703 39.7539 117.973 39.3672 118.23 38.9922C118.488 38.6172 118.746 38.2305 119.004 37.832C118.09 38.0195 117.293 38.2891 116.613 38.6406C115.934 38.9688 115.219 39.4023 114.469 39.9414C114.422 39.9883 114.34 40.0117 114.223 40.0117C114.105 40.0117 113.977 39.9531 113.836 39.8359C113.719 39.6953 113.66 39.5664 113.66 39.4492C113.66 39.332 113.695 39.2383 113.766 39.168C114.562 38.2773 115.535 37.5859 116.684 37.0938C117.855 36.5781 119.016 36.2266 120.164 36.0391C120.633 35.3125 121.125 34.5508 121.641 33.7539C122.156 32.9336 122.684 32.125 123.223 31.3281C123.785 30.5078 124.359 29.7344 124.945 29.0078C125.531 28.2578 126.141 27.5898 126.773 27.0039C126.914 26.9102 127.02 26.8633 127.09 26.8633H127.16C127.137 26.5117 127.078 26.1602 126.984 25.8086C126.914 25.4336 126.785 25.1055 126.598 24.8242C126.434 24.5195 126.211 24.2734 125.93 24.0859C125.648 23.8984 125.297 23.8047 124.875 23.8047C124.312 23.8047 123.727 23.9102 123.117 24.1211C122.531 24.332 121.969 24.5664 121.43 24.8242C120.914 25.0586 120.469 25.2812 120.094 25.4922C119.719 25.6797 119.484 25.7734 119.391 25.7734C119.25 25.7734 119.121 25.7148 119.004 25.5977C118.91 25.457 118.863 25.3281 118.863 25.2109C118.863 25.0469 118.945 24.9062 119.109 24.7891C119.227 24.6953 119.367 24.6133 119.531 24.543C119.695 24.4492 119.848 24.3555 119.988 24.2617C120.762 23.8164 121.582 23.4062 122.449 23.0312C123.34 22.6562 124.254 22.4688 125.191 22.4688C125.379 22.4688 125.578 22.5039 125.789 22.5742C126 22.6211 126.188 22.6797 126.352 22.75C126.82 22.9609 127.207 23.2656 127.512 23.6641C127.84 24.0625 128.086 24.5078 128.25 25C128.438 25.4688 128.566 25.9727 128.637 26.5117C128.707 27.0273 128.742 27.5195 128.742 27.9883C128.742 29.3008 128.672 30.6016 128.531 31.8906C128.391 33.1562 128.215 34.4336 128.004 35.7227C128.988 35.6055 129.949 35.4297 130.887 35.1953C131.848 34.9375 132.785 34.6211 133.699 34.2461C133.957 34.1523 134.203 34.0586 134.438 33.9648C134.672 33.8477 134.918 33.7305 135.176 33.6133H135.281C135.422 33.6133 135.551 33.6836 135.668 33.8242C135.809 33.9414 135.879 34.082 135.879 34.2461ZM127.16 28.4805C126.855 28.9961 126.469 29.6406 126 30.4141C125.531 31.1641 125.062 31.9141 124.594 32.6641C124.148 33.3906 123.738 34.0469 123.363 34.6328C122.988 35.2188 122.742 35.5938 122.625 35.7578C122.812 35.7578 123 35.7578 123.188 35.7578C123.398 35.7344 123.609 35.7227 123.82 35.7227C124.172 35.7227 124.523 35.7344 124.875 35.7578C125.25 35.7812 125.613 35.793 125.965 35.793H126.211C126.445 34.5742 126.645 33.3672 126.809 32.1719C126.996 30.9531 127.113 29.7227 127.16 28.4805ZM151.629 24.1562C151.629 24.4141 151.5 24.5898 151.242 24.6836C150.844 24.8477 150.469 24.9883 150.117 25.1055C149.789 25.1992 149.426 25.3398 149.027 25.5273C148.09 25.9961 147.234 26.582 146.461 27.2852C145.711 27.9648 145.02 28.7148 144.387 29.5352C143.777 30.3555 143.227 31.2227 142.734 32.1367C142.266 33.0508 141.844 33.9766 141.469 34.9141L141.434 35.0195C141.902 34.9492 142.359 34.8789 142.805 34.8086C143.273 34.7383 143.742 34.7031 144.211 34.7031C144.445 34.7031 144.762 34.7266 145.16 34.7734C145.559 34.7969 145.863 34.8555 146.074 34.9492C146.168 34.9961 146.238 35.0898 146.285 35.2305C146.355 35.3711 146.391 35.4883 146.391 35.582C146.391 35.6523 146.367 35.7344 146.32 35.8281C146.297 35.8984 146.238 35.957 146.145 36.0039C145.324 36.3789 144.422 36.6133 143.438 36.707C142.453 36.7773 141.516 36.8594 140.625 36.9531C139.805 39.0156 139.043 41.0781 138.34 43.1406C137.637 45.2031 136.934 47.2891 136.23 49.3984C135.738 50.875 135.281 52.3633 134.859 53.8633C134.438 55.3633 133.98 56.8398 133.488 58.293C132.996 59.7695 132.434 61.2109 131.801 62.6172C131.168 64.0469 130.406 65.4062 129.516 66.6953C129.094 67.2812 128.625 67.832 128.109 68.3477C127.57 68.8867 126.996 69.3555 126.387 69.7539C125.754 70.1523 125.086 70.4688 124.383 70.7031C123.68 70.9375 122.965 71.0547 122.238 71.0547C121.348 71.0547 120.469 70.8906 119.602 70.5625C118.711 70.2578 117.879 69.8477 117.105 69.332C116.309 68.8164 115.582 68.2188 114.926 67.5391C114.27 66.8594 113.719 66.1445 113.273 65.3945C113.227 65.2539 113.203 65.1602 113.203 65.1133C113.203 64.9727 113.262 64.8555 113.379 64.7617C113.473 64.668 113.59 64.6211 113.73 64.6211C113.895 64.6211 114.047 64.6914 114.188 64.832C114.375 65.0898 114.551 65.3242 114.715 65.5352C114.879 65.7695 115.055 66.0039 115.242 66.2383C116.039 67.082 116.941 67.8086 117.949 68.418C118.957 69.0273 120.047 69.4258 121.219 69.6133C121.359 69.6367 121.5 69.6484 121.641 69.6484C121.781 69.6719 121.922 69.6836 122.062 69.6836C122.977 69.6836 123.832 69.4844 124.629 69.0859C125.402 68.7109 126.117 68.1953 126.773 67.5391C127.43 66.9062 128.027 66.168 128.566 65.3242C129.082 64.4805 129.562 63.6133 130.008 62.7227C130.43 61.832 130.805 60.9414 131.133 60.0508C131.438 59.1836 131.707 58.3867 131.941 57.6602C132.41 56.1836 132.844 54.707 133.242 53.2305C133.641 51.7773 134.074 50.3125 134.543 48.8359C135.199 46.8672 135.832 44.9219 136.441 43C137.074 41.0547 137.754 39.1211 138.48 37.1992C137.707 37.2695 136.934 37.3281 136.16 37.375C135.387 37.4219 134.613 37.4453 133.84 37.4453C133.746 37.4453 133.652 37.375 133.559 37.2344C133.488 37.0703 133.453 36.9414 133.453 36.8477C133.453 36.6133 133.547 36.4609 133.734 36.3906C134.016 36.3203 134.297 36.2617 134.578 36.2148C134.883 36.168 135.176 36.1211 135.457 36.0742C136.066 35.957 136.688 35.8516 137.32 35.7578C137.953 35.6406 138.586 35.5234 139.219 35.4062C139.289 35.1953 139.359 34.9961 139.43 34.8086C139.523 34.5977 139.617 34.3984 139.711 34.2109C140.203 32.9688 140.801 31.75 141.504 30.5547C142.207 29.3359 143.016 28.2461 143.93 27.2852C144.867 26.3008 145.922 25.4805 147.094 24.8242C148.266 24.168 149.555 23.7695 150.961 23.6289H151.102C151.242 23.6289 151.359 23.6875 151.453 23.8047C151.57 23.8984 151.629 24.0156 151.629 24.1562ZM156.375 37.9375C156.375 38.125 156.363 38.3008 156.34 38.4648C156.316 38.6289 156.281 38.8047 156.234 38.9922C156.188 39.1797 156.059 39.2734 155.848 39.2734C155.754 39.2734 155.613 39.2383 155.426 39.168C155.262 39.0742 155.18 38.9805 155.18 38.8867L155.215 38.5703C155.215 38.4062 155.191 38.207 155.145 37.9727C155.121 37.7383 155.062 37.5156 154.969 37.3047C154.898 37.0703 154.793 36.8828 154.652 36.7422C154.512 36.5781 154.324 36.4961 154.09 36.4961C153.527 36.4961 152.93 36.6719 152.297 37.0234C151.664 37.3516 151.125 37.6797 150.68 38.0078C150.492 38.1484 150.234 38.3594 149.906 38.6406C149.578 38.9219 149.238 39.2266 148.887 39.5547C148.535 39.8828 148.207 40.1992 147.902 40.5039C147.621 40.8086 147.422 41.0547 147.305 41.2422C147.234 41.3359 147.141 41.5117 147.023 41.7695C146.93 42.0039 146.824 42.2617 146.707 42.543C146.613 42.8242 146.508 43.0938 146.391 43.3516C146.297 43.6094 146.215 43.8086 146.145 43.9492C145.676 45.0742 145.219 46.1992 144.773 47.3242C144.352 48.4492 143.953 49.5859 143.578 50.7344C143.391 51.2734 143.215 51.8242 143.051 52.3867C142.91 52.9727 142.746 53.5352 142.559 54.0742C142.465 54.2617 142.348 54.3555 142.207 54.3555C142.113 54.3555 141.973 54.2969 141.785 54.1797C141.621 54.0859 141.539 53.9922 141.539 53.8984C141.539 53.6406 141.574 53.3477 141.645 53.0195C141.738 52.6914 141.809 52.3984 141.855 52.1406C142.16 50.6172 142.535 49.1172 142.98 47.6406C143.426 46.1641 143.941 44.7109 144.527 43.2812C144.738 42.7188 144.984 42.0508 145.266 41.2773C145.57 40.5039 145.887 39.7188 146.215 38.9219C146.543 38.1016 146.883 37.3398 147.234 36.6367C147.609 35.9102 147.984 35.3359 148.359 34.9141C148.453 34.8203 148.559 34.7734 148.676 34.7734C148.77 34.7734 148.898 34.832 149.062 34.9492C149.25 35.043 149.344 35.1484 149.344 35.2656C149.344 35.3359 149.32 35.4648 149.273 35.6523C149.227 35.8164 149.18 36.0039 149.133 36.2148C149.086 36.4023 149.027 36.5898 148.957 36.7773C148.91 36.9414 148.875 37.0586 148.852 37.1289C149.602 36.5664 150.387 36.0625 151.207 35.6172C152.027 35.1719 152.93 34.9492 153.914 34.9492C154.336 34.9492 154.699 35.043 155.004 35.2305C155.309 35.3945 155.566 35.6172 155.777 35.8984C155.988 36.1797 156.141 36.4961 156.234 36.8477C156.328 37.1992 156.375 37.5625 156.375 37.9375ZM164.426 25.8086C164.426 25.9492 164.367 26.1133 164.25 26.3008L164.215 26.4062C164.262 26.5469 164.285 26.6523 164.285 26.7227C164.121 26.8398 164.004 26.9688 163.934 27.1094C163.863 27.2266 163.699 27.2852 163.441 27.2852C163.23 27.2852 163.02 27.2031 162.809 27.0391C162.598 26.8516 162.492 26.6289 162.492 26.3711C162.492 25.9492 162.527 25.6094 162.598 25.3516C162.691 25.0703 163.008 24.9297 163.547 24.9297C163.758 24.9297 163.957 25.0234 164.145 25.2109C164.332 25.3984 164.426 25.5977 164.426 25.8086ZM164.18 48.2383C164.18 48.3555 164.145 48.4492 164.074 48.5195C163.629 49.0586 163.195 49.5977 162.773 50.1367C162.375 50.6523 161.941 51.1328 161.473 51.5781C161.027 52.0234 160.523 52.3984 159.961 52.7031C159.398 53.0312 158.754 53.2656 158.027 53.4062C157.395 53.125 156.961 52.75 156.727 52.2812C156.492 51.8359 156.375 51.2852 156.375 50.6289V49.3633C156.375 48.7539 156.434 48.1211 156.551 47.4648C156.691 46.8086 156.832 46.1758 156.973 45.5664C157.184 44.6523 157.418 43.668 157.676 42.6133C157.957 41.5586 158.273 40.5156 158.625 39.4844C159 38.4297 159.422 37.4219 159.891 36.4609C160.359 35.4766 160.887 34.6211 161.473 33.8945C161.59 33.7773 161.707 33.7188 161.824 33.7188C161.965 33.7188 162.105 33.7773 162.246 33.8945C162.387 33.9883 162.457 34.1172 162.457 34.2812V34.3516C162.059 35.5938 161.602 36.9062 161.086 38.2891C160.594 39.6484 160.113 41.043 159.645 42.4727C159.199 43.8789 158.812 45.2852 158.484 46.6914C158.18 48.0977 158.027 49.457 158.027 50.7695C158.027 50.9102 158.027 51.1094 158.027 51.3672C158.051 51.625 158.133 51.7891 158.273 51.8594C158.789 51.7656 159.328 51.4961 159.891 51.0508C160.477 50.6055 161.016 50.1367 161.508 49.6445C162.023 49.1523 162.469 48.707 162.844 48.3086C163.219 47.9102 163.477 47.7109 163.617 47.7109C163.734 47.7109 163.852 47.7695 163.969 47.8867C164.109 48.0039 164.18 48.1211 164.18 48.2383ZM175.5 35.4414C175.5 35.6758 175.406 35.8281 175.219 35.8984C174.82 36.0859 174.422 36.2617 174.023 36.4258C173.648 36.5898 173.273 36.8008 172.898 37.0586C171.328 38.0195 169.98 39.2383 168.855 40.7148C167.73 42.1914 166.934 43.8203 166.465 45.6016C166.254 46.5156 166.148 47.4414 166.148 48.3789C166.148 48.707 166.172 49.0703 166.219 49.4688C166.266 49.8438 166.348 50.2188 166.465 50.5938C166.605 50.9688 166.781 51.3086 166.992 51.6133C167.227 51.918 167.52 52.1406 167.871 52.2812C167.895 52.3047 167.93 52.3164 167.977 52.3164C168.047 52.3164 168.094 52.3164 168.117 52.3164C168.703 52.3164 169.242 52.1641 169.734 51.8594C170.227 51.5312 170.672 51.168 171.07 50.7695C171.703 50.1367 172.301 49.4102 172.863 48.5898C172.98 48.4258 173.098 48.2617 173.215 48.0977C173.332 47.9336 173.449 47.7812 173.566 47.6406C173.637 47.5234 173.742 47.4648 173.883 47.4648C174.023 47.4648 174.152 47.5234 174.27 47.6406C174.41 47.7344 174.48 47.8516 174.48 47.9922C174.48 48.0391 174.422 48.1562 174.305 48.3438C174.211 48.5312 174.094 48.7422 173.953 48.9766C173.812 49.1875 173.672 49.3984 173.531 49.6094C173.414 49.7969 173.332 49.9258 173.285 49.9961C172.957 50.4883 172.605 50.9688 172.23 51.4375C171.879 51.9062 171.48 52.3164 171.035 52.668C170.613 53.0195 170.133 53.3008 169.594 53.5117C169.055 53.7227 168.469 53.8281 167.836 53.8281C167.695 53.8281 167.59 53.8164 167.52 53.793C167.074 53.7227 166.676 53.5469 166.324 53.2656C165.996 53.0078 165.703 52.6797 165.445 52.2812C165.211 51.9062 165.023 51.5078 164.883 51.0859C164.742 50.6406 164.637 50.2188 164.566 49.8203C164.52 49.5391 164.484 49.2578 164.461 48.9766C164.438 48.6953 164.426 48.4023 164.426 48.0977C164.426 47.0898 164.543 46.1289 164.777 45.2148C165.012 44.1836 165.352 43.1641 165.797 42.1562C166.266 41.1484 166.828 40.2109 167.484 39.3438C168.141 38.4766 168.891 37.7148 169.734 37.0586C170.578 36.3789 171.516 35.8398 172.547 35.4414C172.898 35.3008 173.297 35.1719 173.742 35.0547C174.188 34.9141 174.609 34.8438 175.008 34.8438C175.125 34.8438 175.23 34.9141 175.324 35.0547C175.441 35.1953 175.5 35.3242 175.5 35.4414ZM191.566 46.5156C190.957 47.7578 190.324 48.8711 189.668 49.8555C189.012 50.8164 188.156 51.7539 187.102 52.668C186.586 53.1367 186 53.3711 185.344 53.3711C184.992 53.3711 184.652 53.2656 184.324 53.0547C184.02 52.8672 183.809 52.5977 183.691 52.2461C183.645 52.1289 183.609 51.9648 183.586 51.7539C183.586 51.543 183.574 51.3203 183.551 51.0859C183.551 50.8516 183.551 50.6289 183.551 50.418C183.574 50.1836 183.586 49.9961 183.586 49.8555C182.766 50.8398 181.793 51.6719 180.668 52.3516C179.566 53.0547 178.348 53.4062 177.012 53.4062C176.941 53.4062 176.836 53.3828 176.695 53.3359C176.578 53.2891 176.484 53.2539 176.414 53.2305C175.875 52.9727 175.465 52.5625 175.184 52C174.926 51.4375 174.797 50.875 174.797 50.3125C174.797 49.5391 174.891 48.7773 175.078 48.0273C175.289 47.2539 175.559 46.5156 175.887 45.8125C176.238 45.0859 176.637 44.3945 177.082 43.7383C177.527 43.082 177.996 42.4609 178.488 41.875C179.754 40.3047 181.207 38.9453 182.848 37.7969C184.488 36.625 186.27 35.6875 188.191 34.9844C188.215 34.9609 188.262 34.9492 188.332 34.9492C188.496 34.9492 188.613 35.0078 188.684 35.125C188.777 35.2422 188.824 35.3711 188.824 35.5117C188.824 35.7227 188.742 35.8633 188.578 35.9336C188.18 36.1445 187.781 36.3438 187.383 36.5312C187.008 36.6953 186.633 36.8828 186.258 37.0938C183.656 38.5938 181.465 40.5156 179.684 42.8594C179.332 43.3281 178.969 43.8555 178.594 44.4414C178.219 45.0273 177.879 45.6367 177.574 46.2695C177.27 46.8789 177.012 47.5117 176.801 48.168C176.613 48.8242 176.52 49.457 176.52 50.0664C176.52 50.1602 176.531 50.3008 176.555 50.4883C176.578 50.6523 176.613 50.8281 176.66 51.0156C176.707 51.1797 176.777 51.332 176.871 51.4727C176.988 51.5898 177.117 51.6484 177.258 51.6484C177.938 51.6484 178.594 51.4727 179.227 51.1211C179.883 50.7695 180.492 50.3242 181.055 49.7852C181.617 49.2461 182.121 48.6719 182.566 48.0625C183.012 47.4531 183.375 46.8789 183.656 46.3398C184.195 45.3555 184.676 44.3711 185.098 43.3867C185.52 42.3789 185.941 41.3711 186.363 40.3633C186.527 39.9414 186.715 39.4492 186.926 38.8867C187.16 38.3242 187.383 37.8438 187.594 37.4453C187.688 37.2812 187.84 37.1992 188.051 37.1992C188.215 37.1992 188.355 37.2461 188.473 37.3398C188.59 37.4336 188.648 37.5625 188.648 37.7266L188.613 37.7969C188.426 38.6406 188.215 39.4961 187.98 40.3633C187.746 41.207 187.488 42.0391 187.207 42.8594C187.09 43.1875 186.949 43.5508 186.785 43.9492C186.621 44.3477 186.492 44.6875 186.398 44.9688C186.352 45.1328 186.316 45.2969 186.293 45.4609C186.293 45.625 186.281 45.7891 186.258 45.9531C186.188 46.3281 186.105 46.7031 186.012 47.0781C185.941 47.4297 185.859 47.793 185.766 48.168C185.648 48.6367 185.543 49.1172 185.449 49.6094C185.379 50.0781 185.344 50.5586 185.344 51.0508C185.344 51.168 185.344 51.2734 185.344 51.3672C185.344 51.4609 185.355 51.5547 185.379 51.6484C185.543 51.6484 185.73 51.5781 185.941 51.4375C186.176 51.2969 186.41 51.1328 186.645 50.9453C186.879 50.7344 187.09 50.5234 187.277 50.3125C187.488 50.1016 187.652 49.9375 187.77 49.8203C188.473 49.0703 189.141 48.2383 189.773 47.3242C189.938 47.1367 190.078 46.9375 190.195 46.7266C190.336 46.4922 190.488 46.2812 190.652 46.0938C190.723 45.9766 190.828 45.918 190.969 45.918C191.133 45.918 191.273 45.9766 191.391 46.0938C191.508 46.2109 191.566 46.3516 191.566 46.5156ZM208.582 49.6445C208.582 49.7852 208.523 49.8906 208.406 49.9609C208.148 50.1719 207.844 50.4062 207.492 50.6641C207.141 50.9219 206.766 51.1797 206.367 51.4375C205.969 51.6719 205.57 51.8945 205.172 52.1055C204.797 52.3164 204.457 52.4805 204.152 52.5977C203.613 52.832 203.109 52.9492 202.641 52.9492C201.938 52.9492 201.422 52.6914 201.094 52.1758C200.789 51.6836 200.637 51.1328 200.637 50.5234C200.637 49.7969 200.754 48.9766 200.988 48.0625C201.223 47.125 201.504 46.1758 201.832 45.2148C202.16 44.2539 202.5 43.3164 202.852 42.4023C203.227 41.4648 203.543 40.6445 203.801 39.9414C204.059 39.2617 204.293 38.582 204.504 37.9023C204.715 37.1992 204.855 36.4727 204.926 35.7227C204.504 35.7695 203.93 36.0039 203.203 36.4258C202.477 36.8477 201.715 37.3398 200.918 37.9023C200.145 38.4414 199.406 38.9805 198.703 39.5195C198 40.0586 197.449 40.4688 197.051 40.75L195.785 43.2812C195.223 44.3828 194.684 45.4844 194.168 46.5859C193.676 47.6641 193.195 48.7656 192.727 49.8906C192.516 50.4297 192.316 50.9688 192.129 51.5078C191.941 52.0469 191.73 52.5859 191.496 53.125C191.426 53.3125 191.297 53.4062 191.109 53.4062C191.016 53.4062 190.898 53.3477 190.758 53.2305C190.594 53.1133 190.512 53.0078 190.512 52.9141C190.512 52.8906 190.535 52.8086 190.582 52.668C190.605 52.5508 190.641 52.4102 190.688 52.2461C190.711 52.082 190.746 51.9297 190.793 51.7891C190.816 51.6484 190.828 51.5547 190.828 51.5078C191.227 49.9609 191.707 48.4375 192.27 46.9375C192.855 45.4375 193.5 43.9609 194.203 42.5078C194.531 41.8281 194.848 41.1484 195.152 40.4688C195.457 39.7656 195.773 39.0742 196.102 38.3945C196.242 38.1367 196.406 37.8203 196.594 37.4453C196.805 37.0703 197.016 36.6953 197.227 36.3203C197.461 35.9219 197.695 35.5586 197.93 35.2305C198.164 34.8789 198.387 34.6094 198.598 34.4219C198.691 34.3281 198.797 34.2812 198.914 34.2812C199.008 34.2812 199.137 34.3516 199.301 34.4922C199.465 34.6094 199.547 34.7266 199.547 34.8438C199.547 34.9141 199.5 35.0781 199.406 35.3359C199.336 35.5938 199.242 35.875 199.125 36.1797C199.008 36.4609 198.891 36.7422 198.773 37.0234C198.68 37.2812 198.621 37.457 198.598 37.5508C198.996 37.1758 199.453 36.7656 199.969 36.3203C200.508 35.875 201.07 35.4648 201.656 35.0898C202.266 34.7148 202.887 34.4102 203.52 34.1758C204.152 33.918 204.75 33.7891 205.312 33.7891C205.641 33.7891 205.945 33.9414 206.227 34.2461C206.531 34.5273 206.707 34.832 206.754 35.1602C206.801 35.3945 206.824 35.5703 206.824 35.6875C206.824 36.0859 206.742 36.5781 206.578 37.1641C206.438 37.7266 206.297 38.207 206.156 38.6055C205.922 39.2852 205.582 40.1875 205.137 41.3125C204.691 42.4141 204.246 43.5508 203.801 44.7227C203.355 45.8945 202.969 47.0195 202.641 48.0977C202.312 49.1758 202.148 50.0195 202.148 50.6289C202.148 50.8867 202.172 51.1094 202.219 51.2969C202.266 51.4609 202.441 51.543 202.746 51.543C203.168 51.543 203.66 51.4141 204.223 51.1562C204.809 50.8984 205.371 50.6172 205.91 50.3125C206.449 49.9844 206.918 49.6914 207.316 49.4336C207.715 49.1758 207.961 49.0469 208.055 49.0469C208.195 49.0469 208.312 49.1172 208.406 49.2578C208.523 49.375 208.582 49.5039 208.582 49.6445ZM245.461 34.2461C245.461 34.3398 245.426 34.4219 245.355 34.4922C244.863 35.0312 244.301 35.5 243.668 35.8984C243.035 36.2734 242.355 36.5898 241.629 36.8477C240.902 37.082 240.164 37.2695 239.414 37.4102C238.664 37.5273 237.938 37.5977 237.234 37.6211C236.836 39.918 236.426 42.2383 236.004 44.582C235.582 46.9258 235.371 49.2695 235.371 51.6133C235.371 52.293 235.406 52.9609 235.477 53.6172C235.57 54.2969 235.746 54.8945 236.004 55.4102C236.285 55.9492 236.672 56.3711 237.164 56.6758C237.68 57.0039 238.359 57.168 239.203 57.168C239.344 57.168 239.473 57.1562 239.59 57.1328C239.73 57.1094 239.871 57.0977 240.012 57.0977C240.176 57.0977 240.305 57.1562 240.398 57.2734C240.492 57.3906 240.539 57.5312 240.539 57.6953C240.539 57.8594 240.445 57.9883 240.258 58.082C240.094 58.1992 239.895 58.2812 239.66 58.3281C239.449 58.375 239.227 58.4102 238.992 58.4336C238.758 58.457 238.582 58.4688 238.465 58.4688C237.457 58.4688 236.625 58.2578 235.969 57.8359C235.336 57.4375 234.832 56.8984 234.457 56.2188C234.082 55.5625 233.812 54.8125 233.648 53.9688C233.508 53.1484 233.438 52.3281 233.438 51.5078C233.438 50.3828 233.496 49.2344 233.613 48.0625C233.754 46.8906 233.918 45.7188 234.105 44.5469C234.316 43.3516 234.539 42.168 234.773 40.9961C235.008 39.8242 235.23 38.6875 235.441 37.5859C234.949 37.5625 234.457 37.5391 233.965 37.5156C233.473 37.4922 232.98 37.4805 232.488 37.4805C232.23 37.4805 231.984 37.4805 231.75 37.4805C231.516 37.4805 231.27 37.4922 231.012 37.5156C230.613 38.1484 230.191 38.7695 229.746 39.3789C229.324 39.9883 228.891 40.5977 228.445 41.207C227.625 42.332 226.746 43.457 225.809 44.582C224.871 45.6836 223.863 46.7148 222.785 47.6758C221.73 48.6367 220.594 49.4922 219.375 50.2422C218.156 50.9922 216.844 51.5547 215.438 51.9297C215.039 52.0469 214.617 52.1406 214.172 52.2109C213.703 52.3047 213.258 52.3516 212.836 52.3516C212.695 52.3516 212.59 52.293 212.52 52.1758C212.426 52.0586 212.379 51.9414 212.379 51.8242C212.379 51.543 212.496 51.3789 212.73 51.332C213.246 51.2148 213.738 51.1094 214.207 51.0156C214.676 50.8984 215.156 50.7461 215.648 50.5586C216.867 50.0898 218.004 49.4805 219.059 48.7305C220.113 47.957 221.098 47.1133 222.012 46.1992C222.949 45.2617 223.828 44.2773 224.648 43.2461C225.469 42.2148 226.254 41.1836 227.004 40.1523C227.285 39.7539 227.555 39.3672 227.812 38.9922C228.07 38.6172 228.328 38.2305 228.586 37.832C227.672 38.0195 226.875 38.2891 226.195 38.6406C225.516 38.9688 224.801 39.4023 224.051 39.9414C224.004 39.9883 223.922 40.0117 223.805 40.0117C223.688 40.0117 223.559 39.9531 223.418 39.8359C223.301 39.6953 223.242 39.5664 223.242 39.4492C223.242 39.332 223.277 39.2383 223.348 39.168C224.145 38.2773 225.117 37.5859 226.266 37.0938C227.438 36.5781 228.598 36.2266 229.746 36.0391C230.215 35.3125 230.707 34.5508 231.223 33.7539C231.738 32.9336 232.266 32.125 232.805 31.3281C233.367 30.5078 233.941 29.7344 234.527 29.0078C235.113 28.2578 235.723 27.5898 236.355 27.0039C236.496 26.9102 236.602 26.8633 236.672 26.8633H236.742C236.719 26.5117 236.66 26.1602 236.566 25.8086C236.496 25.4336 236.367 25.1055 236.18 24.8242C236.016 24.5195 235.793 24.2734 235.512 24.0859C235.23 23.8984 234.879 23.8047 234.457 23.8047C233.895 23.8047 233.309 23.9102 232.699 24.1211C232.113 24.332 231.551 24.5664 231.012 24.8242C230.496 25.0586 230.051 25.2812 229.676 25.4922C229.301 25.6797 229.066 25.7734 228.973 25.7734C228.832 25.7734 228.703 25.7148 228.586 25.5977C228.492 25.457 228.445 25.3281 228.445 25.2109C228.445 25.0469 228.527 24.9062 228.691 24.7891C228.809 24.6953 228.949 24.6133 229.113 24.543C229.277 24.4492 229.43 24.3555 229.57 24.2617C230.344 23.8164 231.164 23.4062 232.031 23.0312C232.922 22.6562 233.836 22.4688 234.773 22.4688C234.961 22.4688 235.16 22.5039 235.371 22.5742C235.582 22.6211 235.77 22.6797 235.934 22.75C236.402 22.9609 236.789 23.2656 237.094 23.6641C237.422 24.0625 237.668 24.5078 237.832 25C238.02 25.4688 238.148 25.9727 238.219 26.5117C238.289 27.0273 238.324 27.5195 238.324 27.9883C238.324 29.3008 238.254 30.6016 238.113 31.8906C237.973 33.1562 237.797 34.4336 237.586 35.7227C238.57 35.6055 239.531 35.4297 240.469 35.1953C241.43 34.9375 242.367 34.6211 243.281 34.2461C243.539 34.1523 243.785 34.0586 244.02 33.9648C244.254 33.8477 244.5 33.7305 244.758 33.6133H244.863C245.004 33.6133 245.133 33.6836 245.25 33.8242C245.391 33.9414 245.461 34.082 245.461 34.2461ZM236.742 28.4805C236.438 28.9961 236.051 29.6406 235.582 30.4141C235.113 31.1641 234.645 31.9141 234.176 32.6641C233.73 33.3906 233.32 34.0469 232.945 34.6328C232.57 35.2188 232.324 35.5938 232.207 35.7578C232.395 35.7578 232.582 35.7578 232.77 35.7578C232.98 35.7344 233.191 35.7227 233.402 35.7227C233.754 35.7227 234.105 35.7344 234.457 35.7578C234.832 35.7812 235.195 35.793 235.547 35.793H235.793C236.027 34.5742 236.227 33.3672 236.391 32.1719C236.578 30.9531 236.695 29.7227 236.742 28.4805ZM266.133 49.7852C266.133 49.9492 265.922 50.1953 265.5 50.5234C265.102 50.8281 264.633 51.1445 264.094 51.4727C263.555 51.7773 263.027 52.0586 262.512 52.3164C262.02 52.5977 261.68 52.7734 261.492 52.8438C261.047 53.0078 260.625 53.0898 260.227 53.0898C259.477 53.0898 258.949 52.8438 258.645 52.3516C258.363 51.8594 258.223 51.2734 258.223 50.5938C258.223 49.8672 258.352 49.0117 258.609 48.0273C258.867 47.043 259.172 46.0352 259.523 45.0039C259.898 43.9492 260.273 42.9297 260.648 41.9453C261.047 40.9375 261.375 40.0703 261.633 39.3438C261.797 38.8516 261.973 38.2891 262.16 37.6562C262.371 37.0234 262.477 36.4375 262.477 35.8984C262.148 35.9922 261.762 36.1445 261.316 36.3555C260.895 36.543 260.543 36.7305 260.262 36.918C259.207 37.6211 258.188 38.3594 257.203 39.1328C256.219 39.8828 255.234 40.668 254.25 41.4883C253.875 42.9648 253.453 44.4297 252.984 45.8828C252.516 47.3359 251.977 48.7656 251.367 50.1719C251.18 50.5703 250.992 50.9805 250.805 51.4023C250.641 51.8242 250.441 52.2109 250.207 52.5625C250.113 52.7266 249.984 52.8086 249.82 52.8086C249.703 52.8086 249.562 52.75 249.398 52.6328C249.258 52.5156 249.188 52.3984 249.188 52.2812C249.188 52.2578 249.211 52.1172 249.258 51.8594C249.328 51.5781 249.375 51.4258 249.398 51.4023C249.727 49.9492 250.113 48.5312 250.559 47.1484C251.027 45.7422 251.496 44.3359 251.965 42.9297C252.34 41.6641 252.691 40.3984 253.02 39.1328C253.16 38.5938 253.289 38.0547 253.406 37.5156C253.523 36.9531 253.582 36.4023 253.582 35.8633C253.582 35.7695 253.57 35.6875 253.547 35.6172C253.547 35.5469 253.547 35.4766 253.547 35.4062C252.984 35.5234 252.363 35.875 251.684 36.4609C251.027 37.0234 250.371 37.6797 249.715 38.4297C249.059 39.1562 248.438 39.8945 247.852 40.6445C247.266 41.3711 246.773 41.957 246.375 42.4023C246.328 42.4492 246.293 42.4727 246.27 42.4727C246.199 42.6133 246.129 42.7539 246.059 42.8945C246.012 43.0352 245.953 43.1641 245.883 43.2812C245.344 44.3359 244.828 45.3789 244.336 46.4102C243.867 47.4414 243.41 48.4961 242.965 49.5742C242.707 50.1602 242.473 50.7578 242.262 51.3672C242.074 51.9531 241.863 52.5391 241.629 53.125C241.559 53.3125 241.43 53.4062 241.242 53.4062C241.125 53.4062 240.984 53.3477 240.82 53.2305C240.68 53.1133 240.609 53.0078 240.609 52.9141C240.609 52.8906 240.633 52.8086 240.68 52.668C240.703 52.5508 240.738 52.4102 240.785 52.2461C240.809 52.082 240.832 51.9297 240.855 51.7891C240.902 51.6484 240.926 51.5547 240.926 51.5078C241.324 49.9609 241.805 48.4375 242.367 46.9375C242.953 45.4375 243.598 43.9609 244.301 42.5078C244.629 41.8281 244.945 41.1484 245.25 40.4688C245.555 39.7656 245.883 39.0742 246.234 38.3945C246.375 38.1133 246.539 37.7852 246.727 37.4102C246.914 37.0352 247.113 36.6719 247.324 36.3203C247.559 35.9453 247.793 35.5938 248.027 35.2656C248.262 34.9141 248.484 34.6328 248.695 34.4219C248.789 34.3281 248.895 34.2812 249.012 34.2812C249.105 34.2812 249.234 34.3516 249.398 34.4922C249.562 34.6094 249.645 34.7266 249.645 34.8438C249.645 34.9141 249.598 35.0664 249.504 35.3008C249.434 35.5352 249.352 35.793 249.258 36.0742C249.164 36.3555 249.059 36.625 248.941 36.8828C248.848 37.1172 248.789 37.2812 248.766 37.375C249.023 37.0703 249.34 36.707 249.715 36.2852C250.09 35.8633 250.488 35.4648 250.91 35.0898C251.355 34.6914 251.812 34.3633 252.281 34.1055C252.75 33.8477 253.207 33.7188 253.652 33.7188C254.004 33.7188 254.285 33.7891 254.496 33.9297C254.73 34.0703 254.895 34.2578 254.988 34.4922C255.105 34.7031 255.176 34.9492 255.199 35.2305C255.246 35.5117 255.27 35.793 255.27 36.0742C255.27 36.543 255.234 37.0117 255.164 37.4805C255.094 37.9492 255 38.418 254.883 38.8867C255.328 38.4414 255.867 37.9375 256.5 37.375C257.133 36.7891 257.812 36.25 258.539 35.7578C259.266 35.2422 259.992 34.8203 260.719 34.4922C261.469 34.1406 262.16 33.9648 262.793 33.9648C263.168 33.9648 263.508 34.1172 263.812 34.4219C264.141 34.7266 264.305 35.0664 264.305 35.4414C264.305 35.8867 264.281 36.3203 264.234 36.7422C264.188 37.1641 264.094 37.5859 263.953 38.0078C263.672 38.9688 263.344 39.9297 262.969 40.8906C262.594 41.8281 262.219 42.7656 261.844 43.7031C261.469 44.6406 261.105 45.5781 260.754 46.5156C260.426 47.4531 260.145 48.4141 259.91 49.3984C259.863 49.6328 259.816 49.8672 259.77 50.1016C259.723 50.3359 259.699 50.5703 259.699 50.8047C259.699 51.0625 259.723 51.2852 259.77 51.4727C259.816 51.6367 259.992 51.7188 260.297 51.7188C260.695 51.7188 261.176 51.5898 261.738 51.332C262.301 51.0742 262.852 50.793 263.391 50.4883C263.953 50.1602 264.434 49.8672 264.832 49.6094C265.254 49.3516 265.512 49.2227 265.605 49.2227C265.746 49.2227 265.863 49.2812 265.957 49.3984C266.074 49.5156 266.133 49.6445 266.133 49.7852ZM281.461 46.5156C280.852 47.7578 280.219 48.8711 279.562 49.8555C278.906 50.8164 278.051 51.7539 276.996 52.668C276.48 53.1367 275.895 53.3711 275.238 53.3711C274.887 53.3711 274.547 53.2656 274.219 53.0547C273.914 52.8672 273.703 52.5977 273.586 52.2461C273.539 52.1289 273.504 51.9648 273.48 51.7539C273.48 51.543 273.469 51.3203 273.445 51.0859C273.445 50.8516 273.445 50.6289 273.445 50.418C273.469 50.1836 273.48 49.9961 273.48 49.8555C272.66 50.8398 271.688 51.6719 270.562 52.3516C269.461 53.0547 268.242 53.4062 266.906 53.4062C266.836 53.4062 266.73 53.3828 266.59 53.3359C266.473 53.2891 266.379 53.2539 266.309 53.2305C265.77 52.9727 265.359 52.5625 265.078 52C264.82 51.4375 264.691 50.875 264.691 50.3125C264.691 49.5391 264.785 48.7773 264.973 48.0273C265.184 47.2539 265.453 46.5156 265.781 45.8125C266.133 45.0859 266.531 44.3945 266.977 43.7383C267.422 43.082 267.891 42.4609 268.383 41.875C269.648 40.3047 271.102 38.9453 272.742 37.7969C274.383 36.625 276.164 35.6875 278.086 34.9844C278.109 34.9609 278.156 34.9492 278.227 34.9492C278.391 34.9492 278.508 35.0078 278.578 35.125C278.672 35.2422 278.719 35.3711 278.719 35.5117C278.719 35.7227 278.637 35.8633 278.473 35.9336C278.074 36.1445 277.676 36.3438 277.277 36.5312C276.902 36.6953 276.527 36.8828 276.152 37.0938C273.551 38.5938 271.359 40.5156 269.578 42.8594C269.227 43.3281 268.863 43.8555 268.488 44.4414C268.113 45.0273 267.773 45.6367 267.469 46.2695C267.164 46.8789 266.906 47.5117 266.695 48.168C266.508 48.8242 266.414 49.457 266.414 50.0664C266.414 50.1602 266.426 50.3008 266.449 50.4883C266.473 50.6523 266.508 50.8281 266.555 51.0156C266.602 51.1797 266.672 51.332 266.766 51.4727C266.883 51.5898 267.012 51.6484 267.152 51.6484C267.832 51.6484 268.488 51.4727 269.121 51.1211C269.777 50.7695 270.387 50.3242 270.949 49.7852C271.512 49.2461 272.016 48.6719 272.461 48.0625C272.906 47.4531 273.27 46.8789 273.551 46.3398C274.09 45.3555 274.57 44.3711 274.992 43.3867C275.414 42.3789 275.836 41.3711 276.258 40.3633C276.422 39.9414 276.609 39.4492 276.82 38.8867C277.055 38.3242 277.277 37.8438 277.488 37.4453C277.582 37.2812 277.734 37.1992 277.945 37.1992C278.109 37.1992 278.25 37.2461 278.367 37.3398C278.484 37.4336 278.543 37.5625 278.543 37.7266L278.508 37.7969C278.32 38.6406 278.109 39.4961 277.875 40.3633C277.641 41.207 277.383 42.0391 277.102 42.8594C276.984 43.1875 276.844 43.5508 276.68 43.9492C276.516 44.3477 276.387 44.6875 276.293 44.9688C276.246 45.1328 276.211 45.2969 276.188 45.4609C276.188 45.625 276.176 45.7891 276.152 45.9531C276.082 46.3281 276 46.7031 275.906 47.0781C275.836 47.4297 275.754 47.793 275.66 48.168C275.543 48.6367 275.438 49.1172 275.344 49.6094C275.273 50.0781 275.238 50.5586 275.238 51.0508C275.238 51.168 275.238 51.2734 275.238 51.3672C275.238 51.4609 275.25 51.5547 275.273 51.6484C275.438 51.6484 275.625 51.5781 275.836 51.4375C276.07 51.2969 276.305 51.1328 276.539 50.9453C276.773 50.7344 276.984 50.5234 277.172 50.3125C277.383 50.1016 277.547 49.9375 277.664 49.8203C278.367 49.0703 279.035 48.2383 279.668 47.3242C279.832 47.1367 279.973 46.9375 280.09 46.7266C280.23 46.4922 280.383 46.2812 280.547 46.0938C280.617 45.9766 280.723 45.918 280.863 45.918C281.027 45.918 281.168 45.9766 281.285 46.0938C281.402 46.2109 281.461 46.3516 281.461 46.5156ZM308.215 54.0039C307.934 55.5273 307.359 56.7227 306.492 57.5898C305.648 58.4805 304.418 58.9727 302.801 59.0664C301.98 59.1133 301.137 59.0547 300.27 58.8906C299.402 58.75 298.535 58.5508 297.668 58.293C296.801 58.0352 295.945 57.7422 295.102 57.4141C294.258 57.1094 293.449 56.8047 292.676 56.5C291.551 56.0547 290.414 55.5977 289.266 55.1289C288.141 54.6602 286.98 54.3672 285.785 54.25C285.41 54.2031 285.047 54.168 284.695 54.1445C284.344 54.1445 283.992 54.1562 283.641 54.1797C283.477 54.2031 283.324 54.2148 283.184 54.2148C283.043 54.2148 282.891 54.2266 282.727 54.25C282.281 54.2969 281.836 54.3555 281.391 54.4258C280.969 54.5195 280.547 54.625 280.125 54.7422C279.938 54.7891 279.738 54.8477 279.527 54.918C279.293 55.0117 279.094 55.0703 278.93 55.0938C278.789 55.0938 278.648 55.0352 278.508 54.918C278.367 54.8008 278.285 54.6719 278.262 54.5312C278.215 54.3203 278.273 54.168 278.438 54.0742C279.797 52.1758 281.238 50.3359 282.762 48.5547C284.285 46.75 285.855 45.0039 287.473 43.3164C288.434 42.332 289.383 41.3594 290.32 40.3984C291.258 39.4141 292.242 38.4648 293.273 37.5508C292.758 37.668 292.207 37.7734 291.621 37.8672C291.035 37.9375 290.473 37.9844 289.934 38.0078C289.535 38.0312 289.102 38.043 288.633 38.043C288.164 38.0195 287.684 37.9727 287.191 37.9023C286.723 37.832 286.254 37.7266 285.785 37.5859C285.34 37.4453 284.941 37.2578 284.59 37.0234C284.449 36.9297 284.379 36.8359 284.379 36.7422C284.355 36.625 284.391 36.4844 284.484 36.3203C284.578 36.1562 284.695 36.0742 284.836 36.0742H284.906C286.055 36.332 287.215 36.4492 288.387 36.4258C288.785 36.3789 289.16 36.3438 289.512 36.3203C289.887 36.2734 290.262 36.2266 290.637 36.1797C291.316 36.0859 291.973 35.957 292.605 35.793C293.262 35.6289 293.93 35.5234 294.609 35.4766C294.727 35.4531 294.914 35.4414 295.172 35.4414C295.43 35.4414 295.617 35.4766 295.734 35.5469C295.758 35.4766 295.828 35.4414 295.945 35.4414C296.086 35.4414 296.227 35.5 296.367 35.6172C296.508 35.7109 296.59 35.8398 296.613 36.0039C296.637 36.0742 296.625 36.168 296.578 36.2852C296.086 37.0586 295.512 37.8086 294.855 38.5352C294.199 39.2617 293.52 39.9766 292.816 40.6797C292.113 41.3828 291.398 42.0742 290.672 42.7539C289.945 43.4102 289.254 44.0664 288.598 44.7227C287.262 46.0586 285.961 47.4062 284.695 48.7656C283.453 50.125 282.199 51.5078 280.934 52.9141C281.918 52.5625 282.961 52.3516 284.062 52.2812C284.93 52.2344 285.738 52.2812 286.488 52.4219C287.262 52.5859 288.012 52.7852 288.738 53.0195C289.465 53.2773 290.191 53.5703 290.918 53.8984C291.645 54.2266 292.406 54.543 293.203 54.8477C294.562 55.3867 295.934 55.9023 297.316 56.3945C298.699 56.8867 300.105 57.25 301.535 57.4844C302.004 57.5547 302.426 57.5781 302.801 57.5547C302.941 57.5547 303.059 57.543 303.152 57.5195C303.973 57.4258 304.699 57.168 305.332 56.7461C305.988 56.3242 306.48 55.7383 306.809 54.9883C306.902 54.7773 306.973 54.5664 307.02 54.3555C307.066 54.1445 307.125 53.9453 307.195 53.7578C307.242 53.5703 307.359 53.4766 307.547 53.4766C307.688 53.4766 307.816 53.5234 307.934 53.6172C308.074 53.7109 308.168 53.8398 308.215 54.0039ZM304.418 25.8086C304.418 25.9492 304.359 26.1133 304.242 26.3008L304.207 26.4062C304.254 26.5469 304.277 26.6523 304.277 26.7227C304.113 26.8398 303.996 26.9688 303.926 27.1094C303.855 27.2266 303.691 27.2852 303.434 27.2852C303.223 27.2852 303.012 27.2031 302.801 27.0391C302.59 26.8516 302.484 26.6289 302.484 26.3711C302.484 25.9492 302.52 25.6094 302.59 25.3516C302.684 25.0703 303 24.9297 303.539 24.9297C303.75 24.9297 303.949 25.0234 304.137 25.2109C304.324 25.3984 304.418 25.5977 304.418 25.8086ZM304.172 48.2383C304.172 48.3555 304.137 48.4492 304.066 48.5195C303.621 49.0586 303.188 49.5977 302.766 50.1367C302.367 50.6523 301.934 51.1328 301.465 51.5781C301.02 52.0234 300.516 52.3984 299.953 52.7031C299.391 53.0312 298.746 53.2656 298.02 53.4062C297.387 53.125 296.953 52.75 296.719 52.2812C296.484 51.8359 296.367 51.2852 296.367 50.6289V49.3633C296.367 48.7539 296.426 48.1211 296.543 47.4648C296.684 46.8086 296.824 46.1758 296.965 45.5664C297.176 44.6523 297.41 43.668 297.668 42.6133C297.949 41.5586 298.266 40.5156 298.617 39.4844C298.992 38.4297 299.414 37.4219 299.883 36.4609C300.352 35.4766 300.879 34.6211 301.465 33.8945C301.582 33.7773 301.699 33.7188 301.816 33.7188C301.957 33.7188 302.098 33.7773 302.238 33.8945C302.379 33.9883 302.449 34.1172 302.449 34.2812V34.3516C302.051 35.5938 301.594 36.9062 301.078 38.2891C300.586 39.6484 300.105 41.043 299.637 42.4727C299.191 43.8789 298.805 45.2852 298.477 46.6914C298.172 48.0977 298.02 49.457 298.02 50.7695C298.02 50.9102 298.02 51.1094 298.02 51.3672C298.043 51.625 298.125 51.7891 298.266 51.8594C298.781 51.7656 299.32 51.4961 299.883 51.0508C300.469 50.6055 301.008 50.1367 301.5 49.6445C302.016 49.1523 302.461 48.707 302.836 48.3086C303.211 47.9102 303.469 47.7109 303.609 47.7109C303.727 47.7109 303.844 47.7695 303.961 47.8867C304.102 48.0039 304.172 48.1211 304.172 48.2383ZM321.047 49.6445C321.047 49.7852 320.988 49.8906 320.871 49.9609C320.613 50.1719 320.309 50.4062 319.957 50.6641C319.605 50.9219 319.23 51.1797 318.832 51.4375C318.434 51.6719 318.035 51.8945 317.637 52.1055C317.262 52.3164 316.922 52.4805 316.617 52.5977C316.078 52.832 315.574 52.9492 315.105 52.9492C314.402 52.9492 313.887 52.6914 313.559 52.1758C313.254 51.6836 313.102 51.1328 313.102 50.5234C313.102 49.7969 313.219 48.9766 313.453 48.0625C313.688 47.125 313.969 46.1758 314.297 45.2148C314.625 44.2539 314.965 43.3164 315.316 42.4023C315.691 41.4648 316.008 40.6445 316.266 39.9414C316.523 39.2617 316.758 38.582 316.969 37.9023C317.18 37.1992 317.32 36.4727 317.391 35.7227C316.969 35.7695 316.395 36.0039 315.668 36.4258C314.941 36.8477 314.18 37.3398 313.383 37.9023C312.609 38.4414 311.871 38.9805 311.168 39.5195C310.465 40.0586 309.914 40.4688 309.516 40.75L308.25 43.2812C307.688 44.3828 307.148 45.4844 306.633 46.5859C306.141 47.6641 305.66 48.7656 305.191 49.8906C304.98 50.4297 304.781 50.9688 304.594 51.5078C304.406 52.0469 304.195 52.5859 303.961 53.125C303.891 53.3125 303.762 53.4062 303.574 53.4062C303.48 53.4062 303.363 53.3477 303.223 53.2305C303.059 53.1133 302.977 53.0078 302.977 52.9141C302.977 52.8906 303 52.8086 303.047 52.668C303.07 52.5508 303.105 52.4102 303.152 52.2461C303.176 52.082 303.211 51.9297 303.258 51.7891C303.281 51.6484 303.293 51.5547 303.293 51.5078C303.691 49.9609 304.172 48.4375 304.734 46.9375C305.32 45.4375 305.965 43.9609 306.668 42.5078C306.996 41.8281 307.312 41.1484 307.617 40.4688C307.922 39.7656 308.238 39.0742 308.566 38.3945C308.707 38.1367 308.871 37.8203 309.059 37.4453C309.27 37.0703 309.48 36.6953 309.691 36.3203C309.926 35.9219 310.16 35.5586 310.395 35.2305C310.629 34.8789 310.852 34.6094 311.062 34.4219C311.156 34.3281 311.262 34.2812 311.379 34.2812C311.473 34.2812 311.602 34.3516 311.766 34.4922C311.93 34.6094 312.012 34.7266 312.012 34.8438C312.012 34.9141 311.965 35.0781 311.871 35.3359C311.801 35.5938 311.707 35.875 311.59 36.1797C311.473 36.4609 311.355 36.7422 311.238 37.0234C311.145 37.2812 311.086 37.457 311.062 37.5508C311.461 37.1758 311.918 36.7656 312.434 36.3203C312.973 35.875 313.535 35.4648 314.121 35.0898C314.73 34.7148 315.352 34.4102 315.984 34.1758C316.617 33.918 317.215 33.7891 317.777 33.7891C318.105 33.7891 318.41 33.9414 318.691 34.2461C318.996 34.5273 319.172 34.832 319.219 35.1602C319.266 35.3945 319.289 35.5703 319.289 35.6875C319.289 36.0859 319.207 36.5781 319.043 37.1641C318.902 37.7266 318.762 38.207 318.621 38.6055C318.387 39.2852 318.047 40.1875 317.602 41.3125C317.156 42.4141 316.711 43.5508 316.266 44.7227C315.82 45.8945 315.434 47.0195 315.105 48.0977C314.777 49.1758 314.613 50.0195 314.613 50.6289C314.613 50.8867 314.637 51.1094 314.684 51.2969C314.73 51.4609 314.906 51.543 315.211 51.543C315.633 51.543 316.125 51.4141 316.688 51.1562C317.273 50.8984 317.836 50.6172 318.375 50.3125C318.914 49.9844 319.383 49.6914 319.781 49.4336C320.18 49.1758 320.426 49.0469 320.52 49.0469C320.66 49.0469 320.777 49.1172 320.871 49.2578C320.988 49.375 321.047 49.5039 321.047 49.6445ZM334.828 35.9688C334.828 36.0156 334.805 36.0859 334.758 36.1797C334.711 36.5781 334.664 36.9648 334.617 37.3398C334.594 37.6914 334.547 38.0547 334.477 38.4297C334.359 39.2031 334.23 39.9648 334.09 40.7148C333.949 41.4648 333.797 42.2148 333.633 42.9648C333.047 45.6602 332.32 48.3086 331.453 50.9102C330.609 53.5117 329.672 56.0898 328.641 58.6445C328.266 59.5586 327.867 60.4727 327.445 61.3867C327.047 62.3242 326.59 63.2266 326.074 64.0938C325.582 64.9844 325.031 65.8281 324.422 66.625C323.812 67.4219 323.121 68.1484 322.348 68.8047C321.27 69.7656 320.027 70.2461 318.621 70.2461C317.871 70.2461 317.145 70.1172 316.441 69.8594C315.738 69.6016 315.082 69.25 314.473 68.8047C313.863 68.3828 313.324 67.8672 312.855 67.2578C312.363 66.6719 311.988 66.0391 311.73 65.3594C311.707 65.3359 311.695 65.2773 311.695 65.1836C311.695 65.043 311.754 64.9258 311.871 64.832C311.988 64.7383 312.117 64.6914 312.258 64.6914C312.422 64.6914 312.562 64.7734 312.68 64.9375C312.797 65.1484 312.914 65.3594 313.031 65.5703C313.125 65.7812 313.254 65.9805 313.418 66.168C314.027 66.918 314.777 67.5391 315.668 68.0312C316.535 68.5469 317.449 68.8047 318.41 68.8047C319.512 68.8047 320.484 68.418 321.328 67.6445C321.984 67.0586 322.605 66.3438 323.191 65.5C323.777 64.6562 324.328 63.7422 324.844 62.7578C325.383 61.7734 325.875 60.7422 326.32 59.6641C326.789 58.5859 327.211 57.5078 327.586 56.4297C327.984 55.375 328.348 54.3438 328.676 53.3359C329.004 52.3281 329.309 51.4023 329.59 50.5586C328.746 51.3789 327.832 52.0234 326.848 52.4922C325.863 52.9609 324.773 53.1953 323.578 53.1953C323.555 53.1953 323.52 53.1953 323.473 53.1953C323.426 53.1953 323.391 53.1836 323.367 53.1602C322.828 53.043 322.371 52.832 321.996 52.5273C321.645 52.2227 321.352 51.8711 321.117 51.4727C320.906 51.0508 320.754 50.6055 320.66 50.1367C320.566 49.6445 320.52 49.1523 320.52 48.6602C320.52 47.2539 320.719 45.8594 321.117 44.4766C321.539 43.0938 322.16 41.8164 322.98 40.6445C323.496 39.9414 324.082 39.2617 324.738 38.6055C325.395 37.9258 326.109 37.3398 326.883 36.8477C327.656 36.332 328.477 35.9219 329.344 35.6172C330.211 35.2891 331.102 35.125 332.016 35.125C332.156 35.125 332.379 35.1367 332.684 35.1602C332.988 35.1836 333.293 35.2305 333.598 35.3008C333.926 35.3477 334.207 35.4297 334.441 35.5469C334.699 35.6641 334.828 35.8047 334.828 35.9688ZM333.598 36.3906C333.246 36.2969 332.848 36.25 332.402 36.25C331.582 36.25 330.773 36.4023 329.977 36.707C329.18 37.0117 328.43 37.4219 327.727 37.9375C327.023 38.4297 326.379 38.9922 325.793 39.625C325.207 40.2578 324.691 40.8906 324.246 41.5234C323.59 42.5078 323.086 43.5977 322.734 44.793C322.406 45.9883 322.242 47.1836 322.242 48.3789C322.242 48.6367 322.254 48.9414 322.277 49.293C322.324 49.6445 322.395 49.9844 322.488 50.3125C322.605 50.6172 322.77 50.8867 322.98 51.1211C323.215 51.332 323.508 51.4375 323.859 51.4375C324.586 51.4375 325.289 51.2617 325.969 50.9102C326.672 50.5586 327.316 50.1133 327.902 49.5742C328.488 49.0352 329.004 48.4375 329.449 47.7812C329.918 47.1016 330.293 46.457 330.574 45.8477C331.277 44.3242 331.84 42.7656 332.262 41.1719C332.707 39.5781 333.152 37.9844 333.598 36.3906Z" fill="white"/>
<path d="M146.624 80L143.751 69.647C143.343 69.4317 142.771 69.2787 142.034 69.188L142.119 68.508H147.253L147.151 69.188C146.46 69.2673 145.916 69.426 145.519 69.664L147.593 77.79L150.483 68.627H151.452L154.427 77.637L156.535 69.664C156.127 69.4373 155.543 69.2787 154.784 69.188L154.869 68.508H159.493L159.391 69.188C158.654 69.2673 158.093 69.426 157.708 69.664L154.835 80H153.543L150.721 71.381L147.967 80H146.624ZM160.315 80L160.417 79.32C161.12 79.2407 161.669 79.082 162.066 78.844V69.664C161.658 69.4373 161.074 69.2787 160.315 69.188L160.4 68.508H165.432L165.33 69.188C164.627 69.2673 164.078 69.426 163.681 69.664V78.844C164.089 79.0707 164.673 79.2293 165.432 79.32L165.347 80H160.315ZM170.385 78.963H174.295C174.51 78.691 174.669 78.3397 174.771 77.909C174.884 77.4783 174.947 77.246 174.958 77.212L175.689 77.314L175.23 80H167.019L167.121 79.32C167.824 79.2407 168.373 79.082 168.77 78.844V69.664C168.362 69.4373 167.778 69.2787 167.019 69.188L167.104 68.508H172.136L172.034 69.188C171.331 69.2673 170.782 69.426 170.385 69.664V78.963ZM180.881 68.508C182.989 68.508 184.564 68.9727 185.607 69.902C186.661 70.82 187.188 72.282 187.188 74.288C187.188 76.2827 186.661 77.7333 185.607 78.64C184.553 79.5467 182.944 80 180.779 80H176.648L176.75 79.32C177.453 79.2407 178.002 79.082 178.399 78.844V69.664C177.991 69.4373 177.407 69.2787 176.648 69.188L176.733 68.508H180.881ZM181.136 69.409L180.014 69.426V79.099H181.085C182.524 79.099 183.595 78.7363 184.298 78.011C185.012 77.2857 185.369 76.039 185.369 74.271C185.369 72.503 185.018 71.2507 184.315 70.514C183.624 69.7773 182.564 69.409 181.136 69.409ZM192.083 78.963H195.993C196.209 78.691 196.367 78.3397 196.469 77.909C196.583 77.4783 196.645 77.246 196.656 77.212L197.387 77.314L196.928 80H188.717L188.819 79.32C189.522 79.2407 190.072 79.082 190.468 78.844V69.664C190.06 69.4373 189.477 69.2787 188.717 69.188L188.802 68.508H193.834L193.732 69.188C193.03 69.2673 192.48 69.426 192.083 69.664V78.963ZM198.465 80L198.567 79.32C199.27 79.2407 199.82 79.082 200.216 78.844V69.664C199.808 69.4373 199.225 69.2787 198.465 69.188L198.55 68.508H203.582L203.48 69.188C202.778 69.2673 202.228 69.426 201.831 69.664V78.844C202.239 79.0707 202.823 79.2293 203.582 79.32L203.497 80H198.465ZM214.077 71.262C213.907 71.3187 213.749 71.347 213.601 71.347C213.454 71.347 213.352 71.3413 213.295 71.33C213.137 70.5933 212.853 69.9757 212.445 69.477H208.535V73.71L211.17 73.523C211.658 73.489 211.998 73.0867 212.19 72.316H212.768V75.886H212.19C212.02 75.036 211.675 74.594 211.153 74.56L208.535 74.373V78.844C208.887 79.0707 209.47 79.2293 210.286 79.32L210.201 80H205.169L205.271 79.32C206.076 79.2293 206.626 79.0707 206.92 78.844V69.664C206.512 69.4373 205.929 69.2787 205.169 69.188L205.254 68.508H213.924L214.077 71.262ZM224.271 71.262C224.135 71.3187 223.982 71.347 223.812 71.347C223.653 71.347 223.546 71.3413 223.489 71.33C223.33 70.5933 223.047 69.9757 222.639 69.477H218.729V73.71L221.364 73.523C221.851 73.489 222.191 73.0867 222.384 72.316H222.962V75.886H222.384C222.214 75.036 221.868 74.594 221.347 74.56L218.729 74.373V78.963H223.081C223.489 78.419 223.778 77.7333 223.948 76.906C224.107 76.8833 224.22 76.872 224.288 76.872C224.356 76.872 224.492 76.8833 224.696 76.906L224.526 80H215.363L215.465 79.32C216.27 79.2293 216.819 79.0707 217.114 78.844V69.664C216.706 69.4373 216.122 69.2787 215.363 69.188L215.448 68.508H224.118L224.271 71.262ZM235.537 80.119C233.815 80.119 232.545 79.6487 231.729 78.708C230.913 77.756 230.505 76.2827 230.505 74.288C230.505 70.378 232.239 68.423 235.707 68.423C237.079 68.423 238.133 68.7687 238.869 69.46C239.277 69.8453 239.481 70.327 239.481 70.905C239.481 71.2677 239.374 71.5793 239.158 71.84C238.943 72.0893 238.705 72.214 238.444 72.214C238.184 72.214 237.951 72.1517 237.747 72.027C237.555 71.891 237.43 71.7153 237.373 71.5C237.6 71.1713 237.713 70.8427 237.713 70.514C237.713 70.174 237.521 69.8963 237.135 69.681C236.75 69.4657 236.28 69.358 235.724 69.358C234.512 69.358 233.639 69.749 233.106 70.531C232.574 71.3017 232.307 72.554 232.307 74.288C232.307 76.022 232.557 77.2743 233.055 78.045C233.565 78.8043 234.393 79.184 235.537 79.184C236.353 79.184 237.141 79.0537 237.9 78.793V75.461L236.115 75.325V74.645L239.481 74.39V79.269C238.121 79.8357 236.807 80.119 235.537 80.119ZM240.879 80L240.981 79.32C241.582 79.2407 242.046 79.082 242.375 78.844L246.149 68.491H247.543L251.623 78.861C251.906 79.0763 252.343 79.2293 252.932 79.32L252.847 80H248.002L248.104 79.32C248.829 79.2407 249.368 79.0877 249.719 78.861L248.682 76.141H244.551L243.582 78.878C243.956 79.082 244.523 79.2293 245.282 79.32L245.197 80H240.879ZM244.891 75.189H248.325L246.54 70.531L244.891 75.189ZM257.029 78.963H260.939C261.154 78.691 261.313 78.3397 261.415 77.909C261.528 77.4783 261.59 77.246 261.602 77.212L262.333 77.314L261.874 80H253.663L253.765 79.32C254.467 79.2407 255.017 79.082 255.414 78.844V69.664C255.006 69.4373 254.422 69.2787 253.663 69.188L253.748 68.508H258.78L258.678 69.188C257.975 69.2673 257.425 69.426 257.029 69.664V78.963ZM266.658 78.963H270.568C270.783 78.691 270.942 78.3397 271.044 77.909C271.157 77.4783 271.219 77.246 271.231 77.212L271.962 77.314L271.503 80H263.292L263.394 79.32C264.096 79.2407 264.646 79.082 265.043 78.844V69.664C264.635 69.4373 264.051 69.2787 263.292 69.188L263.377 68.508H268.409L268.307 69.188C267.604 69.2673 267.054 69.426 266.658 69.664V78.963ZM281.828 71.262C281.692 71.3187 281.539 71.347 281.369 71.347C281.211 71.347 281.103 71.3413 281.046 71.33C280.888 70.5933 280.604 69.9757 280.196 69.477H276.286V73.71L278.921 73.523C279.409 73.489 279.749 73.0867 279.941 72.316H280.519V75.886H279.941C279.771 75.036 279.426 74.594 278.904 74.56L276.286 74.373V78.963H280.638C281.046 78.419 281.335 77.7333 281.505 76.906C281.664 76.8833 281.777 76.872 281.845 76.872C281.913 76.872 282.049 76.8833 282.253 76.906L282.083 80H272.92L273.022 79.32C273.827 79.2293 274.377 79.0707 274.671 78.844V69.664C274.263 69.4373 273.68 69.2787 272.92 69.188L273.005 68.508H281.675L281.828 71.262ZM288.761 68.508C291.549 68.508 292.943 69.5223 292.943 71.551C292.943 73.0697 292.116 74.0273 290.461 74.424C290.824 74.6507 291.181 75.121 291.532 75.835L292.943 78.844C293.261 79.0593 293.765 79.2123 294.456 79.303L294.354 80H291.6L290.036 76.175C289.742 75.4723 289.475 75.0473 289.237 74.9C289.011 74.7413 288.518 74.662 287.758 74.662H287.129V78.844C287.435 79.0367 288.019 79.1953 288.88 79.32L288.795 80H283.763L283.865 79.32C284.568 79.2407 285.118 79.082 285.514 78.844V69.664C285.118 69.426 284.534 69.2673 283.763 69.188L283.848 68.508H288.761ZM287.129 73.829H287.962C290.184 73.829 291.294 73.0583 291.294 71.517C291.294 70.021 290.45 69.273 288.761 69.273C288.308 69.273 287.764 69.324 287.129 69.426V73.829ZM297.459 80L297.561 79.32C298.297 79.2407 298.875 79.082 299.295 78.844V75.512L296.065 69.8C295.815 69.4713 295.3 69.2673 294.518 69.188L294.603 68.508H299.55L299.448 69.188C298.722 69.2787 298.19 69.4147 297.85 69.596L300.332 74.101L302.848 69.613C302.462 69.4203 301.884 69.2787 301.114 69.188L301.199 68.508H305.568L305.466 69.188C304.74 69.2107 304.253 69.392 304.004 69.732L300.91 75.393V78.844C301.329 79.0707 301.941 79.2293 302.746 79.32L302.661 80H297.459Z" fill="white"/>
</svg>
