<svg width="364" height="364" viewBox="0 0 364 364" fill="none" xmlns="http://www.w3.org/2000/svg">
<path d="M0 170C0 76.1116 76.1116 0 170 0H194C287.888 0 364 76.1116 364 170V194C364 287.888 287.888 364 194 364H170C76.1116 364 0 287.888 0 194V170Z" fill="#8D8561"/>
<path d="M231.951 220.616C230.645 212.547 233.88 204.465 240.392 199.525L250.227 192.065C255.134 188.342 258.461 182.958 259.596 176.904L260.092 174.262C260.676 171.144 259.85 167.957 257.824 165.517C255.798 163.077 252.819 161.678 249.648 161.678C244.986 161.678 238.971 158.331 236.514 154.37L222.292 131.444C214.611 119.062 202.91 109.315 189.315 103.985C188.622 103.713 187.895 103.576 187.153 103.576C185.07 103.576 183.115 104.688 182.049 106.477L180.39 109.261C179.075 111.469 176.661 112.84 174.089 112.841C173.083 112.841 172.101 112.636 171.171 112.232L166.121 110.036C164.157 109.182 162.669 107.519 162.039 105.472C161.409 103.425 161.703 101.212 162.847 99.4009C163.316 98.6588 163.372 97.7408 163 96.945C162.627 96.1516 161.888 95.6098 161.019 95.496C158.111 95.1159 155.187 94.9527 152.297 95.0118L135.128 95.3626C121.429 95.6415 109.06 102.834 102.042 114.601L86.1706 141.208C81.7175 148.674 81.9735 158.159 86.8229 165.374L94.6314 176.992C97.6565 181.493 102.699 184.18 108.119 184.18C108.811 184.18 109.511 184.135 110.198 184.047L135.256 180.821C138.647 180.384 142.052 181.655 144.333 184.19C145.548 185.539 146.367 187.125 146.751 188.83C147.165 190.663 146.087 192.531 146.247 194.404V194.404C146.351 195.62 147.011 196.741 148.055 197.478L153.029 200.989C158.816 205.074 161.247 212.604 158.942 219.302L157.296 224.081C154.426 232.419 154.571 241.55 157.703 249.793L168.976 279.459C170.885 284.484 175.588 287.88 180.957 288.114L191.141 288.556C191.336 288.565 191.531 288.569 191.725 288.569C195.083 288.569 198.299 287.323 200.781 285.06L209.222 277.363C212.589 274.293 214.687 270.105 215.13 265.569L215.691 259.822C216.128 255.343 218.56 251.397 222.364 248.994L224.96 247.355C231.196 243.416 234.465 236.166 233.287 228.885L231.951 220.616Z" fill="white"/>
<mask id="mask0_88_340" style="mask-type:alpha" maskUnits="userSpaceOnUse" x="0" y="0" width="364" height="364">
<path d="M0 170C0 76.1116 76.1116 0 170 0H194C287.888 0 364 76.1116 364 170V194C364 287.888 287.888 364 194 364H170C76.1116 364 0 287.888 0 194V170Z" fill="#8D8561"/>
</mask>
<g mask="url(#mask0_88_340)">
<path d="M168.736 10.9345C168.736 10.9342 168.736 10.9338 168.737 10.9338C174.332 10.9118 179.952 11.0323 185.514 11.2807C190.097 11.4855 192.802 5.11168 188.398 4.33779V4.33779L176.402 2.23013L174.4 1.87845C173.426 1.7073 119.669 -6.86841 63.1494 31.7667C60.4399 33.6188 57.3988 36.143 54.4377 35.6227V35.6227C53.4404 35.4475 52.4362 35.271 51.771 34.2428C50.5956 32.4258 50.4562 30.0843 52.2609 28.622C52.778 28.203 53.3803 27.8785 53.9231 27.489C56.7605 25.4531 59.5869 23.533 62.3982 21.7223C71.0815 16.1296 70.5436 -3.25383 60.8584 -3.69372V-3.69372C56.0962 -3.91001 50.996 -0.489226 49.5593 3.87864C47.481 10.1973 43.9395 18.6522 37.7754 29.0439C26.2031 47.4154 26.4889 70.992 26.7443 79.0826C26.8042 80.9781 27.2106 83.0783 25.9069 84.788C25.3688 85.4937 24.5789 86.0806 23.5193 86.5933C22.2116 87.226 20.7689 87.2779 19.4594 87.0478V87.0478V87.0478C15.5088 86.3537 15.0156 81.8076 14.8264 78.093C14.2918 67.5989 15.232 44.1818 27.4341 25.4048C32.2562 17.2755 35.3863 10.5601 37.3764 5.354C39.7129 -0.758024 35.541 -5.15142 29.0883 -6.28515V-6.28515V-6.28515C21.7215 -7.57951 13.3163 -1.48864 11.8472 5.5992C8.41057 22.179 3.8683 47.7096 4.12178 71.5559C4.13241 106.188 -4.26301 169.109 -6.14081 183.698C-6.36593 185.447 -4.91102 186.892 -3.01183 186.954V186.954C-0.330901 187.042 2.21384 184.884 2.69722 182.412C6.47233 163.102 18.7981 113.888 42.4523 85.6006C70.7688 51.2851 120.415 11.584 168.735 10.9352C168.736 10.9352 168.736 10.9348 168.736 10.9345V10.9345Z" fill="#696348"/>
<path d="M201.235 52.9346C201.235 52.9343 201.235 52.9339 201.235 52.9339C206.83 52.9119 212.45 53.0324 218.012 53.2809C222.596 53.4856 225.301 47.1118 220.896 46.3379V46.3379L208.901 44.2303L206.899 43.8786C205.925 43.7074 152.168 35.1317 95.6482 73.7668C92.9387 75.6189 89.8976 78.1431 86.9365 77.6228V77.6228C85.9392 77.4476 84.9349 77.2712 84.2698 76.2429C83.0944 74.4259 82.955 72.0844 84.7597 70.6221C85.2768 70.2031 85.8791 69.8787 86.4219 69.4891C89.2593 67.4532 92.0857 65.5331 94.897 63.7224C103.58 58.1297 103.042 38.7463 93.3571 38.3064V38.3064C88.595 38.0901 83.4948 41.5109 82.0581 45.8788C79.9798 52.1974 76.4383 60.6523 70.2742 71.044C58.7018 89.4155 58.9876 112.992 59.2431 121.083C59.3029 122.978 59.7094 125.078 58.4057 126.788C57.8676 127.494 57.0776 128.081 56.0181 128.593C54.7103 129.226 53.2677 129.278 51.9581 129.048V129.048V129.048C48.0076 128.354 47.5144 123.808 47.3252 120.093C46.7906 109.599 47.7308 86.1819 59.9329 67.4049C64.755 59.2757 67.8851 52.5602 69.8752 47.3541C72.2116 41.2421 68.0398 36.8487 61.5871 35.715V35.715V35.715C54.2203 34.4206 45.8151 40.5115 44.346 47.5993C40.9093 64.1791 36.3671 89.7097 36.6206 113.556C36.6312 148.188 28.2358 211.109 26.358 225.698C26.1328 227.448 27.5878 228.892 29.487 228.954V228.954C32.1679 229.042 34.7126 226.884 35.196 224.412C38.9711 205.102 51.2969 155.888 74.9511 127.601C103.268 93.2852 152.914 53.5841 201.234 52.9353C201.234 52.9353 201.235 52.935 201.235 52.9346V52.9346Z" fill="#696348"/>
<path d="M187.701 350.374C187.701 350.375 187.701 350.375 187.7 350.375C181.486 350.349 175.24 350.172 169.054 349.859C164.21 349.614 161.416 356.385 166.084 357.203V357.203L179.457 359.544L181.689 359.935C182.774 360.125 242.613 369.687 304.124 329.261C307.144 327.276 310.51 324.605 313.778 325.177V325.177C314.89 325.372 316.009 325.568 316.778 326.665C318.144 328.612 318.365 331.112 316.377 332.646C315.826 333.071 315.193 333.398 314.62 333.795C311.962 335.635 309.31 337.383 306.668 339.045C297.289 344.944 297.705 366.323 308.097 366.857V366.857C313.229 367.121 318.713 363.398 320.225 358.665C322.352 352.005 326.016 343.146 332.464 332.305C344.645 313.076 343.739 288.317 343.209 279.524C343.079 277.368 342.498 274.904 344.123 273.044C344.686 272.4 345.477 271.855 346.508 271.375C347.973 270.693 349.576 270.654 351.038 270.91V270.91V270.91C355.378 271.67 356.14 276.562 356.463 280.636C357.354 291.864 356.951 316.545 344.048 336.257C339.133 344.522 335.919 351.409 333.856 356.825C331.25 363.667 335.958 368.61 343.168 369.873V369.873V369.873C351.353 371.306 360.609 364.524 362.088 356.625C365.379 339.046 369.509 312.418 368.523 287.485C367.47 250.813 374.853 184.326 376.519 168.669C376.723 166.743 375.104 165.17 373.023 165.086V165.086C370.028 164.966 367.196 167.416 366.702 170.195C363.021 190.886 350.823 242.596 325.57 272.244C295.185 308.412 241.297 350.109 187.702 350.374C187.701 350.374 187.701 350.374 187.701 350.374V350.374Z" fill="#696348"/>
<path d="M149.199 310.374C149.2 310.374 149.199 310.375 149.199 310.375C142.985 310.349 136.738 310.172 130.553 309.859C125.709 309.613 122.915 316.385 127.582 317.202V317.202L140.956 319.544L143.188 319.935C144.273 320.125 204.111 329.686 265.622 289.261C268.642 287.276 272.008 284.604 275.276 285.177V285.177C276.388 285.371 277.508 285.567 278.277 286.664C279.642 288.612 279.863 291.112 277.875 292.646C277.325 293.071 276.692 293.398 276.118 293.795C273.46 295.634 270.809 297.383 268.166 299.045C258.788 304.944 259.204 326.323 269.596 326.857V326.857C274.727 327.121 280.212 323.398 281.723 318.665C283.851 312.004 287.515 303.146 293.963 292.304C306.143 273.076 305.238 248.316 304.707 239.524C304.577 237.368 303.997 234.903 305.622 233.043C306.185 232.399 306.975 231.854 308.006 231.375C309.472 230.693 311.074 230.654 312.537 230.91V230.91V230.91C316.876 231.67 317.639 236.562 317.962 240.636C318.853 251.864 318.449 276.545 305.547 296.257C300.632 304.521 297.417 311.409 295.354 316.825C292.748 323.667 297.456 328.61 304.667 329.873V329.873V329.873C312.852 331.306 322.108 324.523 323.586 316.625C326.877 299.045 331.007 272.418 330.022 247.485C328.968 210.813 336.352 144.326 338.017 128.669C338.222 126.743 336.602 125.17 334.522 125.086V125.086C331.526 124.965 328.694 127.416 328.2 130.195C324.519 150.886 312.322 202.596 287.068 232.244C256.684 268.412 202.795 310.109 149.2 310.373C149.2 310.373 149.199 310.374 149.199 310.374V310.374Z" fill="#696348"/>
</g>
</svg>
